BenchNine-Regular.ufo
<glyph name="quotedbl" format="1">
  <advance width="379"/>
  <unicode hex="0022"/>
  <outline>
    <contour>
      <point x="92" y="832" type="curve" smooth="yes"/>
      <point x="108" y="832" type="line" smooth="yes"/>
      <point x="123" y="832"/>
      <point x="122" y="852"/>
      <point x="124" y="889" type="curve" smooth="yes"/>
      <point x="145" y="1370" type="line" smooth="yes"/>
      <point x="146" y="1403"/>
      <point x="137" y="1438"/>
      <point x="122" y="1438" type="curve" smooth="yes"/>
      <point x="76" y="1438" type="line" smooth="yes"/>
      <point x="62" y="1438"/>
      <point x="50" y="1404"/>
      <point x="52" y="1371" type="curve" smooth="yes"/>
      <point x="76" y="889" type="line" smooth="yes"/>
      <point x="78" y="852"/>
      <point x="78" y="832"/>
    </contour>
    <contour>
      <point x="269" y="832" type="curve" smooth="yes"/>
      <point x="285" y="832" type="line" smooth="yes"/>
      <point x="300" y="832"/>
      <point x="299" y="852"/>
      <point x="301" y="889" type="curve" smooth="yes"/>
      <point x="322" y="1370" type="line" smooth="yes"/>
      <point x="323" y="1403"/>
      <point x="314" y="1438"/>
      <point x="299" y="1438" type="curve" smooth="yes"/>
      <point x="253" y="1438" type="line" smooth="yes"/>
      <point x="239" y="1438"/>
      <point x="227" y="1404"/>
      <point x="229" y="1371" type="curve" smooth="yes"/>
      <point x="253" y="889" type="line" smooth="yes"/>
      <point x="255" y="852"/>
      <point x="255" y="832"/>
    </contour>
  </outline>
</glyph>
<glyph name="numbersign" format="1">
  <advance width="674"/>
  <unicode hex="0023"/>
  <outline>
    <contour>
      <point x="161" y="-205" type="curve" smooth="yes"/>
      <point x="197" y="-205" type="line" smooth="yes"/>
      <point x="205" y="-205"/>
      <point x="212" y="-191"/>
      <point x="214" y="-170" type="curve" smooth="yes"/>
      <point x="247" y="285" type="line"/>
      <point x="409" y="285" type="line"/>
      <point x="376" y="-170" type="line" smooth="yes"/>
      <point x="375" y="-187"/>
      <point x="378" y="-205"/>
      <point x="384" y="-205" type="curve" smooth="yes"/>
      <point x="420" y="-205" type="line" smooth="yes"/>
      <point x="427" y="-205"/>
      <point x="434" y="-191"/>
      <point x="436" y="-170" type="curve" smooth="yes"/>
      <point x="469" y="285" type="line"/>
      <point x="553" y="285" type="line" smooth="yes"/>
      <point x="570" y="285"/>
      <point x="576" y="289"/>
      <point x="576" y="322" type="curve" smooth="yes"/>
      <point x="576" y="338" type="line" smooth="yes"/>
      <point x="576" y="371"/>
      <point x="565" y="375"/>
      <point x="548" y="375" type="curve" smooth="yes"/>
      <point x="478" y="375" type="line"/>
      <point x="520" y="914" type="line"/>
      <point x="598" y="914" type="line" smooth="yes"/>
      <point x="612" y="914"/>
      <point x="616" y="918"/>
      <point x="616" y="951" type="curve" smooth="yes"/>
      <point x="616" y="969" type="line" smooth="yes"/>
      <point x="616" y="992"/>
      <point x="609" y="1006"/>
      <point x="595" y="1006" type="curve" smooth="yes"/>
      <point x="529" y="1006" type="line"/>
      <point x="572" y="1530" type="line" smooth="yes"/>
      <point x="574" y="1547"/>
      <point x="571" y="1565"/>
      <point x="566" y="1565" type="curve" smooth="yes"/>
      <point x="529" y="1565" type="line" smooth="yes"/>
      <point x="522" y="1565"/>
      <point x="515" y="1551"/>
      <point x="513" y="1530" type="curve" smooth="yes"/>
      <point x="469" y="1006" type="line"/>
      <point x="307" y="1006" type="line"/>
      <point x="350" y="1530" type="line" smooth="yes"/>
      <point x="351" y="1547"/>
      <point x="348" y="1565"/>
      <point x="343" y="1565" type="curve" smooth="yes"/>
      <point x="305" y="1565" type="line" smooth="yes"/>
      <point x="299" y="1565"/>
      <point x="291" y="1551"/>
      <point x="289" y="1530" type="curve" smooth="yes"/>
      <point x="246" y="1006" type="line"/>
      <point x="161" y="1006" type="line" smooth="yes"/>
      <point x="146" y="1006"/>
      <point x="139" y="992"/>
      <point x="139" y="969" type="curve" smooth="yes"/>
      <point x="139" y="951" type="line" smooth="yes"/>
      <point x="139" y="918"/>
      <point x="149" y="914"/>
      <point x="164" y="914" type="curve" smooth="yes"/>
      <point x="236" y="914" type="line"/>
      <point x="194" y="375" type="line"/>
      <point x="116" y="375" type="line" smooth="yes"/>
      <point x="101" y="375"/>
      <point x="98" y="371"/>
      <point x="98" y="338" type="curve" smooth="yes"/>
      <point x="98" y="322" type="line" smooth="yes"/>
      <point x="98" y="289"/>
      <point x="106" y="285"/>
      <point x="121" y="285" type="curve" smooth="yes"/>
      <point x="186" y="285" type="line"/>
      <point x="153" y="-170" type="line" smooth="yes"/>
      <point x="151" y="-187"/>
      <point x="155" y="-205"/>
    </contour>
    <contour>
      <point x="256" y="375" type="line"/>
      <point x="297" y="914" type="line"/>
      <point x="459" y="914" type="line"/>
      <point x="418" y="375" type="line"/>
    </contour>
  </outline>
</glyph>
<glyph name="percent" format="1">
  <advance width="1003"/>
  <unicode hex="0025"/>
  <outline>
    <contour>
      <point x="365" y="-82" type="curve" smooth="yes"/>
      <point x="376" y="-82" type="line" smooth="yes"/>
      <point x="393" y="-82"/>
      <point x="407" y="-54"/>
      <point x="413" y="-12" type="curve" smooth="yes"/>
      <point x="635" y="1466" type="line"/>
      <point x="641" y="1499"/>
      <point x="632" y="1536"/>
      <point x="620" y="1536" type="curve" smooth="yes"/>
      <point x="609" y="1536" type="line" smooth="yes"/>
      <point x="594" y="1536"/>
      <point x="579" y="1508"/>
      <point x="572" y="1466" type="curve" smooth="yes"/>
      <point x="350" y="-12" type="line" smooth="yes"/>
      <point x="345" y="-45"/>
      <point x="353" y="-82"/>
    </contour>
    <contour>
      <point x="208" y="752" type="curve" smooth="yes"/>
      <point x="151" y="752"/>
      <point x="115" y="876"/>
      <point x="115" y="1060" type="curve" smooth="yes"/>
      <point x="115" y="1248"/>
      <point x="148" y="1368"/>
      <point x="208" y="1368" type="curve" smooth="yes"/>
      <point x="269" y="1368"/>
      <point x="299" y="1248"/>
      <point x="299" y="1060" type="curve" smooth="yes"/>
      <point x="299" y="876"/>
      <point x="267" y="752"/>
    </contour>
    <contour>
      <point x="208" y="682" type="curve" smooth="yes"/>
      <point x="308" y="682"/>
      <point x="360" y="819"/>
      <point x="360" y="1057" type="curve" smooth="yes"/>
      <point x="360" y="1293"/>
      <point x="310" y="1438"/>
      <point x="208" y="1438" type="curve" smooth="yes"/>
      <point x="104" y="1438"/>
      <point x="54" y="1293"/>
      <point x="54" y="1057" type="curve" smooth="yes"/>
      <point x="54" y="819"/>
      <point x="106" y="682"/>
    </contour>
    <contour>
      <point x="787" y="69" type="curve" smooth="yes"/>
      <point x="730" y="69"/>
      <point x="694" y="193"/>
      <point x="694" y="377" type="curve" smooth="yes"/>
      <point x="694" y="565"/>
      <point x="727" y="685"/>
      <point x="787" y="685" type="curve" smooth="yes"/>
      <point x="848" y="685"/>
      <point x="878" y="565"/>
      <point x="878" y="377" type="curve" smooth="yes"/>
      <point x="878" y="193"/>
      <point x="846" y="69"/>
    </contour>
    <contour>
      <point x="787" y="-1" type="curve" smooth="yes"/>
      <point x="887" y="-1"/>
      <point x="939" y="136"/>
      <point x="939" y="374" type="curve" smooth="yes"/>
      <point x="939" y="610"/>
      <point x="889" y="755"/>
      <point x="787" y="755" type="curve" smooth="yes"/>
      <point x="683" y="755"/>
      <point x="633" y="610"/>
      <point x="633" y="374" type="curve" smooth="yes"/>
      <point x="633" y="136"/>
      <point x="685" y="-1"/>
    </contour>
  </outline>
</glyph>
<glyph name="ampersand" format="1">
  <advance width="1027"/>
  <unicode hex="0026"/>
  <outline>
    <contour>
      <point x="460" y="-13" type="curve" smooth="yes"/>
      <point x="637" y="-13"/>
      <point x="706" y="88"/>
      <point x="722" y="131" type="curve"/>
      <point x="731" y="36"/>
      <point x="786" y="-13"/>
      <point x="865" y="-13" type="curve" smooth="yes"/>
      <point x="917" y="-13"/>
      <point x="958" y="11"/>
      <point x="976" y="24" type="curve" smooth="yes"/>
      <point x="992" y="36"/>
      <point x="995" y="46"/>
      <point x="991" y="58" type="curve" smooth="yes"/>
      <point x="987" y="71" type="line" smooth="yes"/>
      <point x="981" y="90"/>
      <point x="967" y="90"/>
      <point x="955" y="81" type="curve" smooth="yes"/>
      <point x="930" y="62"/>
      <point x="909" y="51"/>
      <point x="876" y="51" type="curve" smooth="yes"/>
      <point x="822" y="51"/>
      <point x="763" y="100"/>
      <point x="763" y="313" type="curve" smooth="yes"/>
      <point x="763" y="700" type="line" smooth="yes"/>
      <point x="763" y="720"/>
      <point x="769" y="729"/>
      <point x="777" y="729" type="curve" smooth="yes"/>
      <point x="926" y="729" type="line" smooth="yes"/>
      <point x="944" y="729"/>
      <point x="957" y="731"/>
      <point x="957" y="764" type="curve" smooth="yes"/>
      <point x="957" y="774" type="line" smooth="yes"/>
      <point x="957" y="805"/>
      <point x="944" y="804"/>
      <point x="926" y="804" type="curve" smooth="yes"/>
      <point x="777" y="804" type="line" smooth="yes"/>
      <point x="769" y="804"/>
      <point x="763" y="814"/>
      <point x="763" y="834" type="curve" smooth="yes"/>
      <point x="763" y="1354" type="line" smooth="yes"/>
      <point x="763" y="1397"/>
      <point x="753" y="1408"/>
      <point x="736" y="1408" type="curve" smooth="yes"/>
      <point x="716" y="1408" type="line" smooth="yes"/>
      <point x="698" y="1408"/>
      <point x="686" y="1397"/>
      <point x="685" y="1354" type="curve" smooth="yes"/>
      <point x="685" y="834" type="line" smooth="yes"/>
      <point x="685" y="814"/>
      <point x="678" y="804"/>
      <point x="670" y="804" type="curve" smooth="yes"/>
      <point x="414" y="804" type="line" smooth="yes"/>
      <point x="286" y="804"/>
      <point x="211" y="914"/>
      <point x="211" y="1095" type="curve" smooth="yes"/>
      <point x="211" y="1336"/>
      <point x="312" y="1395"/>
      <point x="412" y="1395" type="curve" smooth="yes"/>
      <point x="467" y="1395"/>
      <point x="504" y="1378"/>
      <point x="514" y="1375" type="curve" smooth="yes"/>
      <point x="527.333333333" y="1368.33333333"/>
      <point x="541.0" y="1374.28571429"/>
      <point x="541" y="1390" type="curve" smooth="yes"/>
      <point x="541" y="1390"/>
      <point x="541.0" y="1411.0"/>
      <point x="541" y="1411" type="curve" smooth="yes"/>
      <point x="541" y="1424"/>
      <point x="529" y="1434"/>
      <point x="513" y="1440" type="curve" smooth="yes"/>
      <point x="497" y="1446"/>
      <point x="470" y="1459"/>
      <point x="387" y="1459" type="curve" smooth="yes"/>
      <point x="258" y="1459"/>
      <point x="133" y="1370"/>
      <point x="133" y="1099" type="curve" smooth="yes"/>
      <point x="133" y="871"/>
      <point x="241" y="782"/>
      <point x="322" y="761" type="curve"/>
      <point x="239" y="736"/>
      <point x="135" y="608"/>
      <point x="135" y="424" type="curve" smooth="yes"/>
      <point x="135" y="86"/>
      <point x="284" y="-13"/>
    </contour>
    <contour>
      <point x="460" y="51" type="curve" smooth="yes"/>
      <point x="379" y="51"/>
      <point x="213" y="102"/>
      <point x="213" y="407" type="curve" smooth="yes"/>
      <point x="213" y="656"/>
      <point x="332" y="728"/>
      <point x="424" y="729" type="curve" smooth="yes"/>
      <point x="498" y="729"/>
      <point x="597" y="730"/>
      <point x="670" y="729" type="curve" smooth="yes"/>
      <point x="678" y="729"/>
      <point x="685" y="721"/>
      <point x="685" y="701" type="curve" smooth="yes"/>
      <point x="685" y="701"/>
      <point x="687.0" y="273.0"/>
      <point x="689" y="237" type="curve"/>
      <point x="689" y="218"/>
      <point x="674" y="51"/>
    </contour>
  </outline>
</glyph>
<glyph name="parenright" format="1">
  <advance width="382"/>
  <unicode hex="0029"/>
  <outline>
    <contour>
      <point x="113" y="-143" type="curve" smooth="yes"/>
      <point x="248" y="-63"/>
      <point x="288" y="297"/>
      <point x="288" y="698" type="curve" smooth="yes"/>
      <point x="288" y="1098"/>
      <point x="248" y="1459"/>
      <point x="113" y="1540" type="curve" smooth="yes"/>
      <point x="100" y="1548"/>
      <point x="86" y="1508"/>
      <point x="86" y="1470" type="curve" smooth="yes"/>
      <point x="86" y="1452" type="line" smooth="yes"/>
      <point x="86" y="1383"/>
      <point x="102" y="1382"/>
      <point x="122" y="1351" type="curve" smooth="yes"/>
      <point x="167" y="1285"/>
      <point x="211" y="1161"/>
      <point x="211" y="698" type="curve" smooth="yes"/>
      <point x="211" y="235"/>
      <point x="167" y="113"/>
      <point x="122" y="47" type="curve" smooth="yes"/>
      <point x="102" y="16"/>
      <point x="86" y="16"/>
      <point x="86" y="-53" type="curve" smooth="yes"/>
      <point x="86" y="-73" type="line" smooth="yes"/>
      <point x="86" y="-111"/>
      <point x="100" y="-151"/>
    </contour>
  </outline>
</glyph>
<glyph name="hyphen" format="1">
  <advance width="358"/>
  <unicode hex="002D"/>
  <outline>
    <contour>
      <point x="100" y="484" type="curve" smooth="yes"/>
      <point x="254" y="484" type="line" smooth="yes"/>
      <point x="268" y="484"/>
      <point x="278" y="498"/>
      <point x="278" y="541" type="curve" smooth="yes"/>
      <point x="278" y="602" type="line" smooth="yes"/>
      <point x="278" y="645"/>
      <point x="268" y="659"/>
      <point x="254" y="659" type="curve" smooth="yes"/>
      <point x="100" y="659" type="line" smooth="yes"/>
      <point x="84" y="659"/>
      <point x="77" y="645"/>
      <point x="77" y="602" type="curve" smooth="yes"/>
      <point x="77" y="541" type="line" smooth="yes"/>
      <point x="77" y="498"/>
      <point x="84" y="484"/>
    </contour>
  </outline>
</glyph>
<glyph name="period" format="1">
  <advance width="270"/>
  <unicode hex="002E"/>
  <outline>
    <contour>
      <point x="102" y="0" type="curve" smooth="yes"/>
      <point x="174" y="0" type="line" smooth="yes"/>
      <point x="189" y="0"/>
      <point x="200" y="14"/>
      <point x="200" y="57" type="curve" smooth="yes"/>
      <point x="200" y="147" type="line" smooth="yes"/>
      <point x="200" y="190"/>
      <point x="189" y="204"/>
      <point x="174" y="204" type="curve" smooth="yes"/>
      <point x="102" y="204" type="line" smooth="yes"/>
      <point x="88" y="204"/>
      <point x="76" y="190"/>
      <point x="76" y="147" type="curve" smooth="yes"/>
      <point x="76" y="57" type="line" smooth="yes"/>
      <point x="76" y="14"/>
      <point x="88" y="0"/>
    </contour>
  </outline>
</glyph>
<glyph name="zero" format="1">
  <advance width="788"/>
  <unicode hex="0030"/>
  <outline>
    <contour>
      <point x="394" y="43" type="curve" smooth="yes"/>
      <point x="246" y="43"/>
      <point x="166" y="218"/>
      <point x="166" y="732" type="curve" smooth="yes"/>
      <point x="166" y="1222"/>
      <point x="241" y="1392"/>
      <point x="394" y="1392" type="curve" smooth="yes"/>
      <point x="548" y="1392"/>
      <point x="619" y="1224"/>
      <point x="619" y="732" type="curve" smooth="yes"/>
      <point x="619" y="213"/>
      <point x="543" y="43"/>
    </contour>
    <contour>
      <point x="393" y="-21" type="curve" smooth="yes"/>
      <point x="571" y="-21"/>
      <point x="698" y="153"/>
      <point x="698" y="732" type="curve" smooth="yes"/>
      <point x="698" y="1301"/>
      <point x="571" y="1455"/>
      <point x="393" y="1455" type="curve" smooth="yes"/>
      <point x="218" y="1455"/>
      <point x="89" y="1295"/>
      <point x="89" y="732" type="curve" smooth="yes"/>
      <point x="89" y="153"/>
      <point x="218" y="-21"/>
    </contour>
  </outline>
</glyph>
<glyph name="one" format="1">
  <advance width="410"/>
  <unicode hex="0031"/>
  <outline>
    <contour>
      <point x="221" y="0" type="curve" smooth="yes"/>
      <point x="255" y="0" type="line" smooth="yes"/>
      <point x="268" y="0"/>
      <point x="277" y="24"/>
      <point x="277" y="67" type="curve" smooth="yes"/>
      <point x="277" y="1404" type="line" smooth="yes"/>
      <point x="277" y="1447"/>
      <point x="265" y="1440"/>
      <point x="239" y="1433" type="curve" smooth="yes"/>
      <point x="91" y="1390" type="line" smooth="yes"/>
      <point x="78" y="1386"/>
      <point x="70" y="1383"/>
      <point x="70" y="1371" type="curve" smooth="yes"/>
      <point x="70" y="1336" type="line" smooth="yes"/>
      <point x="70" y="1309"/>
      <point x="78" y="1309"/>
      <point x="92" y="1313" type="curve" smooth="yes"/>
      <point x="185" y="1339" type="line" smooth="yes"/>
      <point x="193" y="1341"/>
      <point x="199" y="1340"/>
      <point x="199" y="1320" type="curve" smooth="yes"/>
      <point x="199" y="67" type="line" smooth="yes"/>
      <point x="199" y="24"/>
      <point x="206" y="0"/>
    </contour>
  </outline>
</glyph>
<glyph name="three" format="1">
  <advance width="705"/>
  <unicode hex="0033"/>
  <outline>
    <contour>
      <point x="299" y="-12" type="curve" smooth="yes"/>
      <point x="467" y="-12"/>
      <point x="624" y="55"/>
      <point x="624" y="375" type="curve" smooth="yes"/>
      <point x="624" y="575"/>
      <point x="569" y="713"/>
      <point x="416" y="737" type="curve"/>
      <point x="545" y="775"/>
      <point x="610" y="863"/>
      <point x="610" y="1063" type="curve" smooth="yes"/>
      <point x="610" y="1364"/>
      <point x="480" y="1451"/>
      <point x="314" y="1451" type="curve" smooth="yes"/>
      <point x="254" y="1451"/>
      <point x="168" y="1438"/>
      <point x="89" y="1393" type="curve"/>
      <point x="78" y="1386"/>
      <point x="73" y="1371"/>
      <point x="73" y="1357" type="curve" smooth="yes"/>
      <point x="73" y="1342"/>
      <point x="79" y="1328"/>
      <point x="86" y="1328" type="curve" smooth="yes"/>
      <point x="87" y="1328"/>
      <point x="88" y="1328"/>
      <point x="89" y="1329" type="curve"/>
      <point x="145" y="1362"/>
      <point x="216" y="1388"/>
      <point x="314" y="1388" type="curve" smooth="yes"/>
      <point x="454" y="1388"/>
      <point x="530" y="1304"/>
      <point x="530" y="1060" type="curve" smooth="yes"/>
      <point x="530" y="857"/>
      <point x="469" y="784"/>
      <point x="315" y="776" type="curve" smooth="yes"/>
      <point x="305" y="775"/>
      <point x="294" y="775"/>
      <point x="283" y="775" type="curve" smooth="yes"/>
      <point x="267" y="775"/>
      <point x="266" y="759"/>
      <point x="266" y="749" type="curve" smooth="yes"/>
      <point x="266" y="722" type="line" smooth="yes"/>
      <point x="266" y="708"/>
      <point x="269" y="699"/>
      <point x="283" y="699" type="curve" smooth="yes"/>
      <point x="295" y="699"/>
      <point x="307" y="699"/>
      <point x="319" y="698" type="curve" smooth="yes"/>
      <point x="467" y="692"/>
      <point x="546" y="638"/>
      <point x="547" y="390" type="curve" smooth="yes"/>
      <point x="547" y="134"/>
      <point x="472" y="51"/>
      <point x="299" y="51" type="curve" smooth="yes"/>
      <point x="196" y="51"/>
      <point x="142" y="72"/>
      <point x="99" y="96" type="curve" smooth="yes"/>
      <point x="98" y="97"/>
      <point x="96" y="97"/>
      <point x="95" y="97" type="curve" smooth="yes"/>
      <point x="86" y="97"/>
      <point x="81" y="80"/>
      <point x="81" y="63" type="curve" smooth="yes"/>
      <point x="81" y="49"/>
      <point x="84" y="35"/>
      <point x="93" y="30" type="curve"/>
      <point x="144" y="3"/>
      <point x="223" y="-12"/>
    </contour>
  </outline>
</glyph>
<glyph name="seven" format="1">
  <advance width="454"/>
  <unicode hex="0037"/>
  <outline>
    <contour>
      <point x="183" y="0" type="curve" smooth="yes"/>
      <point x="215" y="0" type="line" smooth="yes"/>
      <point x="230" y="0"/>
      <point x="234" y="4"/>
      <point x="238" y="45" type="curve" smooth="yes"/>
      <point x="374" y="1396" type="line" smooth="yes"/>
      <point x="378" y="1438"/>
      <point x="369" y="1438"/>
      <point x="353" y="1438" type="curve" smooth="yes"/>
      <point x="102" y="1438" type="line" smooth="yes"/>
      <point x="87" y="1438"/>
      <point x="79" y="1438"/>
      <point x="79" y="1418" type="curve" smooth="yes"/>
      <point x="79" y="1403" type="line" smooth="yes"/>
      <point x="79" y="1378"/>
      <point x="87" y="1378"/>
      <point x="102" y="1378" type="curve" smooth="yes"/>
      <point x="280" y="1378" type="line" smooth="yes"/>
      <point x="287" y="1378"/>
      <point x="291" y="1378"/>
      <point x="290" y="1369" type="curve" smooth="yes"/>
      <point x="161" y="45" type="line" smooth="yes"/>
      <point x="157" y="4"/>
      <point x="168" y="0"/>
    </contour>
  </outline>
</glyph>
<glyph name="eight" format="1">
  <advance width="794"/>
  <unicode hex="0038"/>
  <outline>
    <contour>
      <point x="510" y="730" type="curve"/>
      <point x="255" y="823"/>
      <point x="201" y="842"/>
      <point x="201" y="1029" type="curve" smooth="yes"/>
      <point x="202" y="1271"/>
      <point x="259" y="1388"/>
      <point x="399" y="1388" type="curve" smooth="yes"/>
      <point x="526" y="1388"/>
      <point x="592" y="1295"/>
      <point x="592" y="1025" type="curve" smooth="yes"/>
      <point x="592" y="887"/>
      <point x="532" y="781"/>
    </contour>
    <contour>
      <point x="397" y="-12" type="curve" smooth="yes"/>
      <point x="574" y="-12"/>
      <point x="702" y="77"/>
      <point x="702" y="387" type="curve" smooth="yes"/>
      <point x="702" y="545"/>
      <point x="646" y="648"/>
      <point x="561" y="696" type="curve"/>
      <point x="601" y="754"/>
      <point x="668" y="879"/>
      <point x="668" y="1029" type="curve" smooth="yes"/>
      <point x="668" y="1322"/>
      <point x="574" y="1450"/>
      <point x="397" y="1450" type="curve" smooth="yes"/>
      <point x="222" y="1450"/>
      <point x="120" y="1323"/>
      <point x="120" y="1059" type="curve" smooth="yes"/>
      <point x="120" y="868"/>
      <point x="169" y="812"/>
      <point x="220" y="774" type="curve"/>
      <point x="177" y="717"/>
      <point x="93" y="561"/>
      <point x="93" y="403" type="curve" smooth="yes"/>
      <point x="93" y="97"/>
      <point x="222" y="-12"/>
    </contour>
    <contour>
      <point x="399" y="51" type="curve" smooth="yes"/>
      <point x="251" y="51"/>
      <point x="170" y="135"/>
      <point x="170" y="403" type="curve" smooth="yes"/>
      <point x="170" y="498"/>
      <point x="221" y="672"/>
      <point x="272" y="746" type="curve"/>
      <point x="583" y="655"/>
      <point x="623" y="584"/>
      <point x="623" y="403" type="curve" smooth="yes"/>
      <point x="623" y="135"/>
      <point x="548" y="51"/>
    </contour>
  </outline>
</glyph>
<glyph name="colon" format="1">
  <advance width="291"/>
  <unicode hex="003A"/>
  <outline>
    <contour>
      <point x="122" y="0" type="curve" smooth="yes"/>
      <point x="169" y="0" type="line" smooth="yes"/>
      <point x="184" y="0"/>
      <point x="195" y="34"/>
      <point x="195" y="77" type="curve" smooth="yes"/>
      <point x="195" y="221" type="line" smooth="yes"/>
      <point x="195" y="264"/>
      <point x="184" y="298"/>
      <point x="169" y="298" type="curve" smooth="yes"/>
      <point x="122" y="298" type="line" smooth="yes"/>
      <point x="108" y="298"/>
      <point x="96" y="264"/>
      <point x="96" y="221" type="curve" smooth="yes"/>
      <point x="96" y="77" type="line" smooth="yes"/>
      <point x="96" y="34"/>
      <point x="108" y="0"/>
    </contour>
    <contour>
      <point x="122" y="754" type="curve" smooth="yes"/>
      <point x="169" y="754" type="line" smooth="yes"/>
      <point x="184" y="754"/>
      <point x="195" y="788"/>
      <point x="195" y="831" type="curve" smooth="yes"/>
      <point x="195" y="975" type="line" smooth="yes"/>
      <point x="195" y="1018"/>
      <point x="184" y="1052"/>
      <point x="169" y="1052" type="curve" smooth="yes"/>
      <point x="122" y="1052" type="line" smooth="yes"/>
      <point x="108" y="1052"/>
      <point x="96" y="1018"/>
      <point x="96" y="975" type="curve" smooth="yes"/>
      <point x="96" y="831" type="line" smooth="yes"/>
      <point x="96" y="788"/>
      <point x="108" y="754"/>
    </contour>
  </outline>
</glyph>
<glyph name="less" format="1">
  <advance width="494"/>
  <unicode hex="003C"/>
  <outline>
    <contour>
      <point x="391" y="101" type="curve" smooth="yes"/>
      <point x="397" y="101"/>
      <point x="400" y="114"/>
      <point x="400" y="139" type="curve" smooth="yes"/>
      <point x="400" y="167" type="line" smooth="yes"/>
      <point x="400" y="210"/>
      <point x="392" y="218"/>
      <point x="376" y="241" type="curve" smooth="yes"/>
      <point x="138" y="592" type="line" smooth="yes"/>
      <point x="135" y="595"/>
      <point x="134" y="600"/>
      <point x="134" y="604" type="curve" smooth="yes"/>
      <point x="134" y="609"/>
      <point x="135" y="614"/>
      <point x="137" y="617" type="curve" smooth="yes"/>
      <point x="377" y="1010" type="line" smooth="yes"/>
      <point x="392" y="1034"/>
      <point x="400" y="1051"/>
      <point x="400" y="1094" type="curve" smooth="yes"/>
      <point x="400" y="1109" type="line" smooth="yes"/>
      <point x="400" y="1137"/>
      <point x="397" y="1151"/>
      <point x="390" y="1151" type="curve" smooth="yes"/>
      <point x="386" y="1151"/>
      <point x="381" y="1148"/>
      <point x="376" y="1139" type="curve" smooth="yes"/>
      <point x="101" y="692" type="line" smooth="yes"/>
      <point x="78" y="655"/>
      <point x="75" y="650"/>
      <point x="75" y="611" type="curve" smooth="yes"/>
      <point x="75" y="606" type="line" smooth="yes"/>
      <point x="75" y="566"/>
      <point x="76" y="555"/>
      <point x="100" y="520" type="curve" smooth="yes"/>
      <point x="377" y="119" type="line" smooth="yes"/>
      <point x="383" y="110"/>
      <point x="388" y="101"/>
    </contour>
  </outline>
</glyph>
<glyph name="at" format="1">
  <advance width="1203"/>
  <unicode hex="0040"/>
  <outline>
    <contour>
      <point x="615" y="-105" type="curve" smooth="yes"/>
      <point x="729" y="-105"/>
      <point x="844" y="-60"/>
      <point x="906" y="-25" type="curve"/>
      <point x="889" y="30" type="line"/>
      <point x="821" y="-7"/>
      <point x="715" y="-42"/>
      <point x="623" y="-42" type="curve" smooth="yes"/>
      <point x="219" y="-42"/>
      <point x="142" y="326"/>
      <point x="142" y="685" type="curve" smooth="yes"/>
      <point x="142" y="1028"/>
      <point x="224" y="1402"/>
      <point x="595" y="1402" type="curve" smooth="yes"/>
      <point x="992" y="1402"/>
      <point x="1038" y="1091"/>
      <point x="1038" y="686" type="curve" smooth="yes"/>
      <point x="1038" y="377"/>
      <point x="1007" y="300"/>
      <point x="949" y="300" type="curve" smooth="yes"/>
      <point x="895" y="300"/>
      <point x="864" y="324"/>
      <point x="864" y="512" type="curve" smooth="yes"/>
      <point x="864" y="985" type="line" smooth="yes"/>
      <point x="864" y="1015"/>
      <point x="860" y="1033"/>
      <point x="847" y="1033" type="curve" smooth="yes"/>
      <point x="842" y="1033" type="line" smooth="yes"/>
      <point x="825" y="1033"/>
      <point x="821" y="1020"/>
      <point x="816" y="987" type="curve"/>
      <point x="804" y="846" type="line" smooth="yes"/>
      <point x="804" y="839"/>
      <point x="802" y="834"/>
      <point x="799" y="834" type="curve" smooth="yes"/>
      <point x="797" y="834"/>
      <point x="790.351" y="847.847"/>
      <point x="789" y="855" type="curve" smooth="yes"/>
      <point x="760.798" y="1004.39"/>
      <point x="669.958" y="1078.9"/>
      <point x="570.18" y="1078.9" type="curve" smooth="yes"/>
      <point x="433.596" y="1078.9"/>
      <point x="309" y="965.534"/>
      <point x="309" y="660" type="curve" smooth="yes"/>
      <point x="309" y="352.196"/>
      <point x="425.256" y="240.494"/>
      <point x="561.963" y="240.494" type="curve" smooth="yes"/>
      <point x="669.238" y="240.494"/>
      <point x="757.791" y="309.593"/>
      <point x="800" y="460" type="curve" smooth="yes"/>
      <point x="802.309" y="468.227"/>
      <point x="804" y="494"/>
      <point x="810" y="494" type="curve" smooth="yes"/>
      <point x="816" y="494"/>
      <point x="818.345" y="477.033"/>
      <point x="820" y="458" type="curve" smooth="yes"/>
      <point x="832" y="320"/>
      <point x="844" y="242"/>
      <point x="947" y="242" type="curve" smooth="yes"/>
      <point x="1060" y="242"/>
      <point x="1116" y="366"/>
      <point x="1116" y="686" type="curve" smooth="yes"/>
      <point x="1115" y="1101"/>
      <point x="1083" y="1475"/>
      <point x="592" y="1475" type="curve" smooth="yes"/>
      <point x="153" y="1475"/>
      <point x="63" y="1079"/>
      <point x="63" y="688" type="curve" smooth="yes"/>
      <point x="63" y="268"/>
      <point x="165" y="-105"/>
    </contour>
    <contour>
      <point x="572.056" y="300.685" type="curve" smooth="yes"/>
      <point x="468.997" y="300.685"/>
      <point x="388" y="384.652"/>
      <point x="388" y="660" type="curve" smooth="yes"/>
      <point x="388" y="931.397"/>
      <point x="475.597" y="1012.08"/>
      <point x="576.809" y="1012.08" type="curve" smooth="yes"/>
      <point x="685.808" y="1012.08"/>
      <point x="769" y="883.711"/>
      <point x="769" y="652" type="curve" smooth="yes"/>
      <point x="769" y="424.351"/>
      <point x="679.409" y="300.685"/>
    </contour>
  </outline>
</glyph>
<glyph name="B" format="1">
  <advance width="847"/>
  <unicode hex="0042"/>
  <outline>
    <contour>
      <point x="131" y="0" type="curve" smooth="yes"/>
      <point x="404" y="0" type="line" smooth="yes"/>
      <point x="661" y="0"/>
      <point x="787" y="96"/>
      <point x="787" y="424" type="curve" smooth="yes"/>
      <point x="787" y="590"/>
      <point x="720" y="703"/>
      <point x="623" y="758" type="curve" smooth="yes"/>
      <point x="619" y="760"/>
      <point x="615" y="763"/>
      <point x="615" y="765" type="curve" smooth="yes"/>
      <point x="615" y="766"/>
      <point x="617" y="769"/>
      <point x="622" y="772" type="curve" smooth="yes"/>
      <point x="715" y="826"/>
      <point x="747" y="932"/>
      <point x="747" y="1043" type="curve" smooth="yes"/>
      <point x="747" y="1342"/>
      <point x="621" y="1438"/>
      <point x="426" y="1438" type="curve" smooth="yes"/>
      <point x="131" y="1438" type="line" smooth="yes"/>
      <point x="115" y="1438"/>
      <point x="104" y="1438"/>
      <point x="104" y="1399" type="curve" smooth="yes"/>
      <point x="104" y="37" type="line" smooth="yes"/>
      <point x="104" y="0"/>
      <point x="115" y="0"/>
    </contour>
    <contour>
      <point x="196" y="60" type="line" smooth="yes"/>
      <point x="188" y="60"/>
      <point x="182" y="60"/>
      <point x="182" y="75" type="curve" smooth="yes"/>
      <point x="182" y="718" type="line" smooth="yes"/>
      <point x="182" y="737"/>
      <point x="188" y="737"/>
      <point x="196" y="737" type="curve" smooth="yes"/>
      <point x="479" y="737" type="line" smooth="yes"/>
      <point x="603" y="737"/>
      <point x="709" y="623"/>
      <point x="709" y="417" type="curve" smooth="yes"/>
      <point x="709" y="187"/>
      <point x="640" y="60"/>
      <point x="419" y="60" type="curve" smooth="yes"/>
    </contour>
    <contour>
      <point x="196" y="795" type="line" smooth="yes"/>
      <point x="188" y="795"/>
      <point x="182" y="795"/>
      <point x="182" y="810" type="curve" smooth="yes"/>
      <point x="182" y="1358" type="line" smooth="yes"/>
      <point x="182" y="1378"/>
      <point x="188" y="1378"/>
      <point x="196" y="1378" type="curve" smooth="yes"/>
      <point x="430" y="1378" type="line" smooth="yes"/>
      <point x="597" y="1378"/>
      <point x="669" y="1276"/>
      <point x="669" y="1046" type="curve" smooth="yes"/>
      <point x="669" y="876"/>
      <point x="591" y="795"/>
      <point x="486" y="795" type="curve" smooth="yes"/>
    </contour>
  </outline>
</glyph>
<glyph name="G" format="1">
  <advance width="836"/>
  <unicode hex="0047"/>
  <outline>
    <contour>
      <point x="730" y="-15" type="curve" smooth="yes"/>
      <point x="745" y="-15"/>
      <point x="753" y="-8"/>
      <point x="753" y="35" type="curve" smooth="yes"/>
      <point x="753" y="683" type="line" smooth="yes"/>
      <point x="753" y="726"/>
      <point x="742" y="717"/>
      <point x="727" y="717" type="curve" smooth="yes"/>
      <point x="462" y="717" type="line" smooth="yes"/>
      <point x="447" y="717"/>
      <point x="433" y="717"/>
      <point x="433" y="685" type="curve" smooth="yes"/>
      <point x="433" y="674" type="line" smooth="yes"/>
      <point x="433" y="642"/>
      <point x="449" y="642"/>
      <point x="465" y="642" type="curve" smooth="yes"/>
      <point x="667" y="642" type="line" smooth="yes"/>
      <point x="673" y="642"/>
      <point x="675" y="633"/>
      <point x="675" y="563" type="curve" smooth="yes"/>
      <point x="675" y="294"/>
      <point x="635" y="51"/>
      <point x="460" y="51" type="curve" smooth="yes"/>
      <point x="320" y="51"/>
      <point x="168" y="120"/>
      <point x="168" y="721" type="curve" smooth="yes"/>
      <point x="168" y="1351"/>
      <point x="347" y="1388"/>
      <point x="508" y="1388" type="curve" smooth="yes"/>
      <point x="588" y="1388"/>
      <point x="657" y="1362"/>
      <point x="659" y="1362" type="curve" smooth="yes"/>
      <point x="663" y="1362"/>
      <point x="667" y="1363"/>
      <point x="667" y="1371" type="curve" smooth="yes"/>
      <point x="667" y="1412" type="line" smooth="yes"/>
      <point x="667" y="1421"/>
      <point x="657" y="1425"/>
      <point x="653" y="1427" type="curve" smooth="yes"/>
      <point x="624" y="1437"/>
      <point x="576" y="1451"/>
      <point x="498" y="1451" type="curve" smooth="yes"/>
      <point x="306" y="1451"/>
      <point x="90" y="1412"/>
      <point x="90" y="721" type="curve" smooth="yes"/>
      <point x="90" y="62"/>
      <point x="283" y="-13"/>
      <point x="458" y="-13" type="curve" smooth="yes"/>
      <point x="572" y="-13"/>
      <point x="659" y="82"/>
      <point x="686" y="232" type="curve" smooth="yes"/>
      <point x="687" y="238"/>
      <point x="689" y="238"/>
      <point x="691" y="238" type="curve" smooth="yes"/>
      <point x="692" y="238"/>
      <point x="693" y="236"/>
      <point x="693" y="232" type="curve" smooth="yes"/>
      <point x="693" y="179"/>
      <point x="699" y="65"/>
      <point x="702" y="35" type="curve" smooth="yes"/>
      <point x="706" y="-8"/>
      <point x="715" y="-15"/>
    </contour>
    <contour>
      <point x="418" y="1438" type="move" name="top"/>
    </contour>
    <contour>
      <point x="418" y="0" type="move" name="bottom"/>
    </contour>
  </outline>
</glyph>
<glyph name="H" format="1">
  <advance width="851"/>
  <unicode hex="0048"/>
  <outline>
    <contour>
      <point x="128" y="0" type="curve" smooth="yes"/>
      <point x="156" y="0" type="line" smooth="yes"/>
      <point x="172" y="0"/>
      <point x="182" y="4"/>
      <point x="182" y="47" type="curve" smooth="yes"/>
      <point x="182" y="681" type="line"/>
      <point x="187" y="697" type="line"/>
      <point x="662" y="697" type="line"/>
      <point x="669" y="679" type="line"/>
      <point x="669" y="47" type="line" smooth="yes"/>
      <point x="669" y="4"/>
      <point x="679" y="0"/>
      <point x="696" y="0" type="curve" smooth="yes"/>
      <point x="726" y="0" type="line" smooth="yes"/>
      <point x="740" y="0"/>
      <point x="748" y="4"/>
      <point x="748" y="47" type="curve" smooth="yes"/>
      <point x="748" y="1391" type="line" smooth="yes"/>
      <point x="748" y="1434"/>
      <point x="740" y="1438"/>
      <point x="726" y="1438" type="curve" smooth="yes"/>
      <point x="696" y="1438" type="line" smooth="yes"/>
      <point x="679" y="1438"/>
      <point x="669" y="1434"/>
      <point x="669" y="1391" type="curve" smooth="yes"/>
      <point x="669" y="783" type="line"/>
      <point x="661" y="765" type="line"/>
      <point x="186" y="765" type="line"/>
      <point x="182" y="780" type="line"/>
      <point x="182" y="1391" type="line" smooth="yes"/>
      <point x="182" y="1434"/>
      <point x="172" y="1438"/>
      <point x="156" y="1438" type="curve" smooth="yes"/>
      <point x="128" y="1438" type="line" smooth="yes"/>
      <point x="112" y="1438"/>
      <point x="104" y="1434"/>
      <point x="104" y="1391" type="curve" smooth="yes"/>
      <point x="104" y="47" type="line" smooth="yes"/>
      <point x="104" y="4"/>
      <point x="112" y="0"/>
    </contour>
    <contour>
      <point x="426" y="1438" type="move" name="top"/>
    </contour>
    <contour>
      <point x="426" y="719" type="move" name="center"/>
    </contour>
  </outline>
</glyph>
<glyph name="L" format="1">
  <advance width="540"/>
  <unicode hex="004C"/>
  <outline>
    <contour>
      <point x="126" y="0" type="curve" smooth="yes"/>
      <point x="462" y="0" type="line" smooth="yes"/>
      <point x="475" y="0"/>
      <point x="485" y="0"/>
      <point x="485" y="27" type="curve" smooth="yes"/>
      <point x="485" y="35" type="line" smooth="yes"/>
      <point x="485" y="60"/>
      <point x="475" y="60"/>
      <point x="462" y="60" type="curve" smooth="yes"/>
      <point x="196" y="60" type="line" smooth="yes"/>
      <point x="188" y="60"/>
      <point x="182" y="58"/>
      <point x="182" y="78" type="curve" smooth="yes"/>
      <point x="182" y="1391" type="line" smooth="yes"/>
      <point x="182" y="1434"/>
      <point x="174" y="1438"/>
      <point x="159" y="1438" type="curve" smooth="yes"/>
      <point x="126" y="1438" type="line" smooth="yes"/>
      <point x="112" y="1438"/>
      <point x="104" y="1434"/>
      <point x="104" y="1391" type="curve" smooth="yes"/>
      <point x="104" y="47" type="line" smooth="yes"/>
      <point x="104" y="4"/>
      <point x="112" y="0"/>
    </contour>
    <contour>
      <point x="270" y="1438" type="move" name="top"/>
    </contour>
    <contour>
      <point x="270" y="0" type="move" name="bottom"/>
    </contour>
  </outline>
</glyph>
<glyph name="M" format="1">
  <advance width="1003"/>
  <unicode hex="004D"/>
  <outline>
    <contour>
      <point x="125" y="0" type="curve" smooth="yes"/>
      <point x="151" y="0" type="line" smooth="yes"/>
      <point x="165" y="0"/>
      <point x="169" y="24"/>
      <point x="170" y="67" type="curve" smooth="yes"/>
      <point x="206" y="1291" type="line"/>
      <point x="209" y="1295" type="line"/>
      <point x="446" y="67" type="line"/>
      <point x="455" y="26"/>
      <point x="468" y="0"/>
      <point x="483" y="0" type="curve" smooth="yes"/>
      <point x="512" y="1" type="line" smooth="yes"/>
      <point x="527" y="1"/>
      <point x="542" y="26"/>
      <point x="551" y="67" type="curve"/>
      <point x="791" y="1308" type="line"/>
      <point x="796" y="1307" type="line"/>
      <point x="830" y="67" type="line" smooth="yes"/>
      <point x="831" y="24"/>
      <point x="840" y="0"/>
      <point x="855" y="0" type="curve" smooth="yes"/>
      <point x="879" y="0" type="line" smooth="yes"/>
      <point x="894" y="0"/>
      <point x="901" y="24"/>
      <point x="900" y="67" type="curve" smooth="yes"/>
      <point x="858" y="1371" type="line" smooth="yes"/>
      <point x="857" y="1412"/>
      <point x="851" y="1435"/>
      <point x="837" y="1438" type="curve"/>
      <point x="777" y="1438" type="line"/>
      <point x="763" y="1435"/>
      <point x="749" y="1412"/>
      <point x="739" y="1371" type="curve"/>
      <point x="502" y="123" type="line"/>
      <point x="494" y="123" type="line"/>
      <point x="253" y="1381" type="line"/>
      <point x="243" y="1422"/>
      <point x="226" y="1435"/>
      <point x="211" y="1438" type="curve"/>
      <point x="165" y="1438" type="line"/>
      <point x="151" y="1435"/>
      <point x="144" y="1412"/>
      <point x="143" y="1371" type="curve" smooth="yes"/>
      <point x="103" y="67" type="line" smooth="yes"/>
      <point x="102" y="24"/>
      <point x="111" y="0"/>
    </contour>
  </outline>
</glyph>
<glyph name="N" format="1">
  <advance width="857"/>
  <unicode hex="004E"/>
  <outline>
    <contour>
      <point x="128" y="0" type="curve" smooth="yes"/>
      <point x="152" y="0" type="line" smooth="yes"/>
      <point x="168" y="0"/>
      <point x="178" y="14"/>
      <point x="178" y="57" type="curve" smooth="yes"/>
      <point x="178" y="1190" type="line"/>
      <point x="182" y="1199" type="line"/>
      <point x="679" y="44" type="line" smooth="yes"/>
      <point x="684" y="31"/>
      <point x="702" y="0"/>
      <point x="711" y="0" type="curve" smooth="yes"/>
      <point x="730" y="0" type="line" smooth="yes"/>
      <point x="745" y="0"/>
      <point x="753" y="4"/>
      <point x="753" y="47" type="curve" smooth="yes"/>
      <point x="753" y="1391" type="line" smooth="yes"/>
      <point x="753" y="1434"/>
      <point x="745" y="1438"/>
      <point x="730" y="1438" type="curve" smooth="yes"/>
      <point x="704" y="1438" type="line" smooth="yes"/>
      <point x="687" y="1438"/>
      <point x="678" y="1434"/>
      <point x="678" y="1391" type="curve" smooth="yes"/>
      <point x="678" y="222" type="line"/>
      <point x="674" y="209" type="line"/>
      <point x="164" y="1420" type="line" smooth="yes"/>
      <point x="158" y="1432"/>
      <point x="153" y="1438"/>
      <point x="145" y="1438" type="curve" smooth="yes"/>
      <point x="128" y="1438" type="line" smooth="yes"/>
      <point x="112" y="1438"/>
      <point x="104" y="1434"/>
      <point x="104" y="1391" type="curve" smooth="yes"/>
      <point x="104" y="57" type="line" smooth="yes"/>
      <point x="104" y="14"/>
      <point x="112" y="0"/>
    </contour>
    <contour>
      <point x="429" y="1438" type="move" name="top"/>
    </contour>
    <contour>
      <point x="429" y="0" type="move" name="bottom"/>
    </contour>
  </outline>
</glyph>
<glyph name="O" format="1">
  <advance width="846"/>
  <unicode hex="004F"/>
  <outline>
    <contour>
      <point x="422" y="51" type="curve" smooth="yes"/>
      <point x="238" y="51"/>
      <point x="168" y="168"/>
      <point x="168" y="724" type="curve" smooth="yes"/>
      <point x="168" y="1212"/>
      <point x="233" y="1388"/>
      <point x="422" y="1388" type="curve" smooth="yes"/>
      <point x="613" y="1388"/>
      <point x="678" y="1233"/>
      <point x="678" y="724" type="curve" smooth="yes"/>
      <point x="678" y="154"/>
      <point x="609" y="51"/>
    </contour>
    <contour>
      <point x="422" y="-13" type="curve" smooth="yes"/>
      <point x="674" y="-13"/>
      <point x="756" y="125"/>
      <point x="756" y="724" type="curve" smooth="yes"/>
      <point x="756" y="1276"/>
      <point x="674" y="1451"/>
      <point x="422" y="1451" type="curve" smooth="yes"/>
      <point x="174" y="1451"/>
      <point x="90" y="1266"/>
      <point x="90" y="724" type="curve" smooth="yes"/>
      <point x="90" y="135"/>
      <point x="174" y="-13"/>
    </contour>
    <contour>
      <point x="423" y="1438" type="move" name="top"/>
    </contour>
  </outline>
</glyph>
<glyph name="V" format="1">
  <advance width="717"/>
  <unicode hex="0056"/>
  <outline>
    <contour>
      <point x="351" y="0" type="curve"/>
      <point x="388" y="0" type="line"/>
      <point x="403" y="3"/>
      <point x="413" y="16"/>
      <point x="420" y="57" type="curve" smooth="yes"/>
      <point x="655" y="1371" type="line" smooth="yes"/>
      <point x="663" y="1414"/>
      <point x="659" y="1438"/>
      <point x="644" y="1438" type="curve" smooth="yes"/>
      <point x="609" y="1438" type="line" smooth="yes"/>
      <point x="594" y="1438"/>
      <point x="585" y="1419"/>
      <point x="578" y="1376" type="curve" smooth="yes"/>
      <point x="371" y="121" type="line"/>
      <point x="143" y="1376" type="line" smooth="yes"/>
      <point x="135" y="1419"/>
      <point x="124" y="1438"/>
      <point x="110" y="1438" type="curve" smooth="yes"/>
      <point x="74" y="1438" type="line" smooth="yes"/>
      <point x="60" y="1438"/>
      <point x="55" y="1414"/>
      <point x="64" y="1371" type="curve" smooth="yes"/>
      <point x="316" y="57" type="line"/>
      <point x="325" y="16"/>
      <point x="338" y="3"/>
    </contour>
  </outline>
</glyph>
<glyph name="W" format="1">
  <advance width="1162"/>
  <unicode hex="0057"/>
  <outline>
    <contour>
      <point x="294" y="0" type="curve"/>
      <point x="328" y="0" type="line"/>
      <point x="343" y="3"/>
      <point x="349" y="26"/>
      <point x="356" y="67" type="curve" smooth="yes"/>
      <point x="577" y="1324" type="line"/>
      <point x="812" y="67" type="line" smooth="yes"/>
      <point x="820" y="25"/>
      <point x="833" y="3"/>
      <point x="850" y="0" type="curve"/>
      <point x="889" y="0" type="line"/>
      <point x="903" y="3"/>
      <point x="914" y="26"/>
      <point x="920" y="67" type="curve" smooth="yes"/>
      <point x="1100" y="1371" type="line"/>
      <point x="1107" y="1414"/>
      <point x="1105" y="1438"/>
      <point x="1090" y="1438" type="curve" smooth="yes"/>
      <point x="1057" y="1438" type="line" smooth="yes"/>
      <point x="1043" y="1438"/>
      <point x="1030" y="1414"/>
      <point x="1024" y="1371" type="curve" smooth="yes"/>
      <point x="868" y="157" type="line"/>
      <point x="640" y="1360" type="line" smooth="yes"/>
      <point x="632" y="1403"/>
      <point x="618" y="1413"/>
      <point x="601" y="1413" type="curve" smooth="yes"/>
      <point x="552" y="1413" type="line" smooth="yes"/>
      <point x="538" y="1413"/>
      <point x="522" y="1403"/>
      <point x="514" y="1360" type="curve" smooth="yes"/>
      <point x="312" y="192" type="line"/>
      <point x="145" y="1371" type="line" smooth="yes"/>
      <point x="138" y="1414"/>
      <point x="124" y="1438"/>
      <point x="109" y="1438" type="curve" smooth="yes"/>
      <point x="75" y="1438" type="line" smooth="yes"/>
      <point x="61" y="1438"/>
      <point x="56" y="1414"/>
      <point x="65" y="1371" type="curve"/>
      <point x="261" y="67" type="line" smooth="yes"/>
      <point x="268" y="26"/>
      <point x="280" y="3"/>
    </contour>
    <contour>
      <point x="581" y="1438" type="move" name="top"/>
    </contour>
  </outline>
</glyph>
<glyph name="X" format="1">
  <advance width="766"/>
  <unicode hex="0058"/>
  <outline>
    <contour>
      <point x="73" y="0" type="curve" smooth="yes"/>
      <point x="97" y="0" type="line" smooth="yes"/>
      <point x="114" y="0"/>
      <point x="125" y="5"/>
      <point x="142" y="47" type="curve" smooth="yes"/>
      <point x="391" y="678" type="line"/>
      <point x="617" y="47" type="line" smooth="yes"/>
      <point x="633" y="4"/>
      <point x="646" y="0"/>
      <point x="663" y="0" type="curve" smooth="yes"/>
      <point x="684" y="0" type="line" smooth="yes"/>
      <point x="695" y="0"/>
      <point x="701" y="9"/>
      <point x="701" y="24" type="curve" smooth="yes"/>
      <point x="701" y="35"/>
      <point x="698" y="50"/>
      <point x="692" y="67" type="curve" smooth="yes"/>
      <point x="443" y="746" type="line"/>
      <point x="697" y="1383" type="line" smooth="yes"/>
      <point x="703" y="1397"/>
      <point x="704" y="1408"/>
      <point x="704" y="1416" type="curve" smooth="yes"/>
      <point x="704" y="1431"/>
      <point x="698" y="1438"/>
      <point x="686" y="1438" type="curve" smooth="yes"/>
      <point x="658" y="1438" type="line" smooth="yes"/>
      <point x="641" y="1438"/>
      <point x="625" y="1432"/>
      <point x="609" y="1390" type="curve" smooth="yes"/>
      <point x="395" y="819" type="line"/>
      <point x="185" y="1390" type="line" smooth="yes"/>
      <point x="169" y="1433"/>
      <point x="154" y="1438"/>
      <point x="137" y="1438" type="curve" smooth="yes"/>
      <point x="102" y="1438" type="line" smooth="yes"/>
      <point x="95" y="1438"/>
      <point x="91" y="1432"/>
      <point x="91" y="1420" type="curve" smooth="yes"/>
      <point x="91" y="1409"/>
      <point x="96" y="1392"/>
      <point x="102" y="1371" type="curve"/>
      <point x="341" y="748" type="line"/>
      <point x="72" y="67" type="line" smooth="yes"/>
      <point x="64" y="47"/>
      <point x="62" y="31"/>
      <point x="62" y="20" type="curve" smooth="yes"/>
      <point x="62" y="7"/>
      <point x="67" y="0"/>
    </contour>
  </outline>
</glyph>
<glyph name="bracketleft" format="1">
  <advance width="433"/>
  <unicode hex="005B"/>
  <outline>
    <contour>
      <point x="130" y="-57" type="curve" smooth="yes"/>
      <point x="325" y="-57" type="line" smooth="yes"/>
      <point x="339" y="-57"/>
      <point x="347" y="-51"/>
      <point x="347" y="-8" type="curve" smooth="yes"/>
      <point x="347" y="-3" type="line" smooth="yes"/>
      <point x="347" y="40"/>
      <point x="339" y="54"/>
      <point x="325" y="54" type="curve" smooth="yes"/>
      <point x="190" y="54" type="line" smooth="yes"/>
      <point x="183" y="54"/>
      <point x="181" y="61"/>
      <point x="181" y="81" type="curve" smooth="yes"/>
      <point x="181" y="1367" type="line" smooth="yes"/>
      <point x="181" y="1387"/>
      <point x="183" y="1394"/>
      <point x="190" y="1394" type="curve" smooth="yes"/>
      <point x="325" y="1394" type="line" smooth="yes"/>
      <point x="339" y="1394"/>
      <point x="347" y="1408"/>
      <point x="347" y="1451" type="curve" smooth="yes"/>
      <point x="347" y="1460" type="line" smooth="yes"/>
      <point x="347" y="1503"/>
      <point x="339" y="1517"/>
      <point x="325" y="1517" type="curve" smooth="yes"/>
      <point x="130" y="1517" type="line" smooth="yes"/>
      <point x="114" y="1517"/>
      <point x="103" y="1483"/>
      <point x="103" y="1440" type="curve" smooth="yes"/>
      <point x="103" y="12" type="line" smooth="yes"/>
      <point x="103" y="-31"/>
      <point x="114" y="-57"/>
    </contour>
  </outline>
</glyph>
<glyph name="asciicircum" format="1">
  <advance width="1030"/>
  <unicode hex="005E"/>
  <outline>
    <contour>
      <point x="131" y="201" type="curve" smooth="yes"/>
      <point x="143" y="201" type="line" smooth="yes"/>
      <point x="179" y="201"/>
      <point x="185" y="215"/>
      <point x="204" y="270" type="curve" smooth="yes"/>
      <point x="492" y="1093" type="line" smooth="yes"/>
      <point x="501" y="1118"/>
      <point x="504" y="1124"/>
      <point x="513" y="1124" type="curve" smooth="yes"/>
      <point x="522" y="1124"/>
      <point x="525" y="1118"/>
      <point x="534" y="1093" type="curve" smooth="yes"/>
      <point x="830" y="270" type="line" smooth="yes"/>
      <point x="850" y="215"/>
      <point x="860" y="201"/>
      <point x="886" y="201" type="curve" smooth="yes"/>
      <point x="899" y="201" type="line" smooth="yes"/>
      <point x="935" y="201"/>
      <point x="931" y="239"/>
      <point x="920" y="269" type="curve" smooth="yes"/>
      <point x="603" y="1139" type="line"/>
      <point x="585" y="1182"/>
      <point x="573" y="1207"/>
      <point x="526" y="1207" type="curve" smooth="yes"/>
      <point x="501" y="1207" type="line" smooth="yes"/>
      <point x="454" y="1207"/>
      <point x="439" y="1182"/>
      <point x="422" y="1140" type="curve"/>
      <point x="111" y="268" type="line" smooth="yes"/>
      <point x="99" y="236"/>
      <point x="96" y="201"/>
    </contour>
  </outline>
</glyph>
<glyph name="underscore" format="1">
  <advance width="540"/>
  <unicode hex="005F"/>
  <outline>
    <contour>
      <point x="37" y="0" type="curve" smooth="yes"/>
      <point x="507" y="0" type="line" smooth="yes"/>
      <point x="520" y="0"/>
      <point x="530" y="0"/>
      <point x="530" y="27" type="curve" smooth="yes"/>
      <point x="530" y="35" type="line" smooth="yes"/>
      <point x="530" y="60"/>
      <point x="520" y="60"/>
      <point x="507" y="60" type="curve" smooth="yes"/>
      <point x="37" y="60" type="line" smooth="yes"/>
      <point x="24" y="60"/>
      <point x="14" y="60"/>
      <point x="14" y="33" type="curve" smooth="yes"/>
      <point x="14" y="25" type="line" smooth="yes"/>
      <point x="14" y="0"/>
      <point x="24" y="0"/>
    </contour>
  </outline>
</glyph>
<glyph name="a" format="1">
  <advance width="645"/>
  <unicode hex="0061"/>
  <outline>
    <contour>
      <point x="273" y="-12" type="curve" smooth="yes"/>
      <point x="399" y="-12"/>
      <point x="465" y="80"/>
      <point x="490" y="220" type="curve" smooth="yes"/>
      <point x="492" y="230"/>
      <point x="498" y="226"/>
      <point x="498" y="220" type="curve" smooth="yes"/>
      <point x="498" y="178"/>
      <point x="511" y="70"/>
      <point x="514" y="36" type="curve" smooth="yes"/>
      <point x="516" y="15"/>
      <point x="524" y="-4"/>
      <point x="534" y="-4" type="curve" smooth="yes"/>
      <point x="540" y="-4" type="line" smooth="yes"/>
      <point x="552" y="-4"/>
      <point x="558" y="10"/>
      <point x="558" y="45" type="curve" smooth="yes"/>
      <point x="558" y="656" type="line" smooth="yes"/>
      <point x="558" y="905"/>
      <point x="498" y="1018"/>
      <point x="332" y="1018" type="curve" smooth="yes"/>
      <point x="177" y="1018"/>
      <point x="128" y="931"/>
      <point x="93" y="821" type="curve" smooth="yes"/>
      <point x="89" y="810"/>
      <point x="84" y="790"/>
      <point x="86" y="782" type="curve" smooth="yes"/>
      <point x="89" y="766"/>
      <point x="102" y="762"/>
      <point x="119" y="758" type="curve" smooth="yes"/>
      <point x="134" y="754"/>
      <point x="142" y="761"/>
      <point x="152" y="788" type="curve" smooth="yes"/>
      <point x="186" y="884"/>
      <point x="212" y="957"/>
      <point x="334" y="957" type="curve" smooth="yes"/>
      <point x="463" y="957"/>
      <point x="479" y="823"/>
      <point x="479" y="668" type="curve" smooth="yes"/>
      <point x="479" y="608" type="line"/>
      <point x="411" y="593"/>
      <point x="71" y="584"/>
      <point x="71" y="238" type="curve" smooth="yes"/>
      <point x="71" y="92"/>
      <point x="126" y="-12"/>
    </contour>
    <contour>
      <point x="281" y="50" type="curve" smooth="yes"/>
      <point x="178" y="50"/>
      <point x="141" y="122"/>
      <point x="140" y="242" type="curve" smooth="yes"/>
      <point x="139" y="374"/>
      <point x="179" y="500"/>
      <point x="403" y="540" type="curve" smooth="yes"/>
      <point x="406" y="541"/>
      <point x="474" y="551"/>
      <point x="475" y="551" type="curve" smooth="yes"/>
      <point x="481" y="551"/>
      <point x="481" y="507"/>
      <point x="481" y="493" type="curve" smooth="yes"/>
      <point x="481" y="245"/>
      <point x="422" y="50"/>
    </contour>
    <contour>
      <point x="323" y="1006" type="move" name="top"/>
    </contour>
    <contour>
      <point x="580" y="10" type="move" name="ogonek"/>
    </contour>
  </outline>
</glyph>
<glyph name="e" format="1">
  <advance width="647"/>
  <unicode hex="0065"/>
  <outline>
    <contour>
      <point x="350" y="-12" type="curve" smooth="yes"/>
      <point x="500" y="-12"/>
      <point x="568" y="120"/>
      <point x="568" y="256" type="curve" smooth="yes"/>
      <point x="568" y="289" type="line" smooth="yes"/>
      <point x="568" y="299"/>
      <point x="563" y="302"/>
      <point x="558" y="302" type="curve" smooth="yes"/>
      <point x="519" y="302" type="line" smooth="yes"/>
      <point x="517" y="302"/>
      <point x="515" y="291"/>
      <point x="514" y="284" type="curve" smooth="yes"/>
      <point x="507" y="200"/>
      <point x="490" y="50"/>
      <point x="356" y="50" type="curve" smooth="yes"/>
      <point x="197" y="50"/>
      <point x="161" y="317"/>
      <point x="160" y="477" type="curve" smooth="yes"/>
      <point x="160" y="485"/>
      <point x="163" y="487"/>
      <point x="166" y="487" type="curve" smooth="yes"/>
      <point x="533" y="487" type="line" smooth="yes"/>
      <point x="572" y="487"/>
      <point x="578" y="530"/>
      <point x="578" y="565" type="curve"/>
      <point x="578" y="882"/>
      <point x="505.0" y="1019.0"/>
      <point x="342" y="1019" type="curve" smooth="yes"/>
      <point x="216" y="1019"/>
      <point x="80" y="932"/>
      <point x="80" y="504" type="curve" smooth="yes"/>
      <point x="80" y="106"/>
      <point x="202" y="-12"/>
    </contour>
    <contour>
      <point x="164" y="539" type="line" smooth="yes"/>
      <point x="162" y="539"/>
      <point x="162" y="598"/>
      <point x="162" y="602" type="curve" smooth="yes"/>
      <point x="184" y="906"/>
      <point x="260" y="957"/>
      <point x="341" y="957" type="curve" smooth="yes"/>
      <point x="463" y="957"/>
      <point x="502" y="833"/>
      <point x="513" y="541" type="curve"/>
      <point x="513" y="539" type="line"/>
    </contour>
    <contour>
      <point x="324" y="1006" type="move" name="top"/>
    </contour>
    <contour>
      <point x="324" y="0" type="move" name="bottom"/>
    </contour>
    <contour>
      <point x="582" y="10" type="move" name="ogonek"/>
    </contour>
  </outline>
</glyph>
<glyph name="i" format="1">
  <advance width="281"/>
  <unicode hex="0069"/>
  <outline>
    <contour>
      <point x="129" y="0" type="curve" smooth="yes"/>
      <point x="161" y="0" type="line" smooth="yes"/>
      <point x="176" y="0"/>
      <point x="183" y="4"/>
      <point x="183" y="47" type="curve" smooth="yes"/>
      <point x="183" y="959" type="line" smooth="yes"/>
      <point x="183" y="1002"/>
      <point x="176" y="1006"/>
      <point x="161" y="1006" type="curve" smooth="yes"/>
      <point x="129" y="1006" type="line" smooth="yes"/>
      <point x="114" y="1006"/>
      <point x="106" y="1002"/>
      <point x="106" y="959" type="curve" smooth="yes"/>
      <point x="106" y="47" type="line" smooth="yes"/>
      <point x="106" y="4"/>
      <point x="114" y="0"/>
    </contour>
    <contour>
      <point x="119" y="1179" type="curve" smooth="yes"/>
      <point x="171" y="1179" type="line" smooth="yes"/>
      <point x="186" y="1179"/>
      <point x="193" y="1183"/>
      <point x="193" y="1226" type="curve" smooth="yes"/>
      <point x="193" y="1274" type="line" smooth="yes"/>
      <point x="193" y="1317"/>
      <point x="186" y="1321"/>
      <point x="171" y="1321" type="curve" smooth="yes"/>
      <point x="119" y="1321" type="line" smooth="yes"/>
      <point x="104" y="1321"/>
      <point x="96" y="1317"/>
      <point x="96" y="1274" type="curve" smooth="yes"/>
      <point x="96" y="1226" type="line" smooth="yes"/>
      <point x="96" y="1183"/>
      <point x="104" y="1179"/>
    </contour>
  </outline>
</glyph>
<glyph name="l" format="1">
  <advance width="280"/>
  <unicode hex="006C"/>
  <outline>
    <contour>
      <point x="131" y="0" type="curve" smooth="yes"/>
      <point x="163" y="0" type="line" smooth="yes"/>
      <point x="178" y="0"/>
      <point x="186" y="24"/>
      <point x="186" y="67" type="curve" smooth="yes"/>
      <point x="186" y="1371" type="line" smooth="yes"/>
      <point x="186" y="1414"/>
      <point x="178" y="1438"/>
      <point x="163" y="1438" type="curve" smooth="yes"/>
      <point x="131" y="1438" type="line" smooth="yes"/>
      <point x="117" y="1438"/>
      <point x="109" y="1414"/>
      <point x="109" y="1371" type="curve" smooth="yes"/>
      <point x="109" y="67" type="line" smooth="yes"/>
      <point x="109" y="24"/>
      <point x="117" y="0"/>
    </contour>
    <contour>
      <point x="140" y="1006" type="move" name="top"/>
    </contour>
    <contour>
      <point x="140" y="0" type="move" name="bottom"/>
    </contour>
    <contour>
      <point x="260" y="1006" type="move" name="topright"/>
    </contour>
  </outline>
</glyph>
<glyph name="m" format="1">
  <advance width="1017"/>
  <unicode hex="006D"/>
  <outline>
    <contour>
      <point x="118" y="0" type="curve" smooth="yes"/>
      <point x="150" y="0" type="line" smooth="yes"/>
      <point x="164" y="0"/>
      <point x="173" y="9"/>
      <point x="173" y="52" type="curve" smooth="yes"/>
      <point x="173" y="622" type="line" smooth="yes"/>
      <point x="173" y="755"/>
      <point x="254" y="957"/>
      <point x="362" y="957" type="curve" smooth="yes"/>
      <point x="433" y="957"/>
      <point x="473" y="887"/>
      <point x="473" y="662" type="curve" smooth="yes"/>
      <point x="473" y="52" type="line" smooth="yes"/>
      <point x="473" y="9"/>
      <point x="481" y="0"/>
      <point x="496" y="0" type="curve" smooth="yes"/>
      <point x="529" y="0" type="line" smooth="yes"/>
      <point x="543" y="0"/>
      <point x="552" y="9"/>
      <point x="552" y="52" type="curve" smooth="yes"/>
      <point x="552" y="622" type="line" smooth="yes"/>
      <point x="552" y="755"/>
      <point x="633" y="957"/>
      <point x="741" y="957" type="curve" smooth="yes"/>
      <point x="812" y="957"/>
      <point x="852" y="887"/>
      <point x="852" y="662" type="curve" smooth="yes"/>
      <point x="852" y="52" type="line" smooth="yes"/>
      <point x="852" y="9"/>
      <point x="860" y="0"/>
      <point x="875" y="0" type="curve" smooth="yes"/>
      <point x="908" y="0" type="line" smooth="yes"/>
      <point x="922" y="0"/>
      <point x="931" y="9"/>
      <point x="931" y="52" type="curve" smooth="yes"/>
      <point x="931" y="608" type="line" smooth="yes"/>
      <point x="931" y="944"/>
      <point x="859" y="1019"/>
      <point x="742" y="1019" type="curve" smooth="yes"/>
      <point x="669" y="1019"/>
      <point x="587" y="963"/>
      <point x="547" y="792" type="curve" smooth="yes"/>
      <point x="546" y="788"/>
      <point x="545" y="787"/>
      <point x="544" y="787" type="curve" smooth="yes"/>
      <point x="543" y="787"/>
      <point x="543" y="789"/>
      <point x="542" y="792" type="curve" smooth="yes"/>
      <point x="506" y="971"/>
      <point x="455" y="1019"/>
      <point x="363" y="1019" type="curve" smooth="yes"/>
      <point x="290" y="1019"/>
      <point x="208" y="963"/>
      <point x="168" y="792" type="curve" smooth="yes"/>
      <point x="167" y="785"/>
      <point x="165" y="777"/>
      <point x="163" y="777" type="curve" smooth="yes"/>
      <point x="159" y="777"/>
      <point x="158" y="782"/>
      <point x="157" y="790" type="curve" smooth="yes"/>
      <point x="148" y="952" type="line"/>
      <point x="143" y="1002"/>
      <point x="137" y="1006"/>
      <point x="121" y="1006" type="curve" smooth="yes"/>
      <point x="115" y="1006" type="line" smooth="yes"/>
      <point x="100" y="1006"/>
      <point x="94" y="982"/>
      <point x="94" y="939" type="curve" smooth="yes"/>
      <point x="94" y="52" type="line" smooth="yes"/>
      <point x="94" y="9"/>
      <point x="103" y="0"/>
    </contour>
  </outline>
</glyph>
<glyph name="s" format="1">
  <advance width="545"/>
  <unicode hex="0073"/>
  <outline>
    <contour>
      <point x="269" y="-12" type="curve" smooth="yes"/>
      <point x="416" y="-12"/>
      <point x="500" y="101"/>
      <point x="500" y="248" type="curve" smooth="yes"/>
      <point x="500" y="421"/>
      <point x="393" y="495"/>
      <point x="284" y="560" type="curve" smooth="yes"/>
      <point x="191" y="615"/>
      <point x="150" y="670"/>
      <point x="150" y="779" type="curve" smooth="yes"/>
      <point x="150" y="869"/>
      <point x="195" y="957"/>
      <point x="286" y="957" type="curve" smooth="yes"/>
      <point x="353" y="957"/>
      <point x="391" y="931"/>
      <point x="433" y="886" type="curve"/>
      <point x="433" y="886"/>
      <point x="465.0" y="942.0"/>
      <point x="465" y="942" type="curve"/>
      <point x="415" y="995"/>
      <point x="352" y="1019"/>
      <point x="284" y="1019" type="curve" smooth="yes"/>
      <point x="162" y="1019"/>
      <point x="81" y="919"/>
      <point x="81" y="776" type="curve" smooth="yes"/>
      <point x="81" y="608"/>
      <point x="178" y="540"/>
      <point x="279" y="479" type="curve" smooth="yes"/>
      <point x="360" y="430"/>
      <point x="431" y="372"/>
      <point x="431" y="249" type="curve" smooth="yes"/>
      <point x="431" y="145"/>
      <point x="377" y="50"/>
      <point x="270" y="50" type="curve" smooth="yes"/>
      <point x="188" y="50"/>
      <point x="134" y="92"/>
      <point x="81" y="156" type="curve"/>
      <point x="81" y="156"/>
      <point x="46.0" y="97.0"/>
      <point x="46" y="97" type="curve"/>
      <point x="107" y="23"/>
      <point x="169" y="-12"/>
    </contour>
    <contour>
      <point x="273" y="1006" type="move" name="top"/>
    </contour>
    <contour>
      <point x="273" y="0" type="move" name="bottom"/>
    </contour>
  </outline>
</glyph>
<glyph name="t" format="1">
  <advance width="417"/>
  <unicode hex="0074"/>
  <outline>
    <contour>
      <point x="286" y="-3" type="curve" smooth="yes"/>
      <point x="364" y="-3" type="line" smooth="yes"/>
      <point x="382" y="-3"/>
      <point x="391" y="2"/>
      <point x="391" y="18" type="curve" smooth="yes"/>
      <point x="391" y="53" type="line" smooth="yes"/>
      <point x="391" y="65"/>
      <point x="375" y="67"/>
      <point x="362" y="67" type="curve" smooth="yes"/>
      <point x="298" y="67" type="line" smooth="yes"/>
      <point x="245" y="67"/>
      <point x="204" y="91"/>
      <point x="204" y="301" type="curve" smooth="yes"/>
      <point x="204" y="921" type="line" smooth="yes"/>
      <point x="204" y="936"/>
      <point x="206" y="937"/>
      <point x="214" y="937" type="curve" smooth="yes"/>
      <point x="345" y="937" type="line" smooth="yes"/>
      <point x="361" y="937"/>
      <point x="368" y="938"/>
      <point x="368" y="969" type="curve" smooth="yes"/>
      <point x="368" y="973" type="line" smooth="yes"/>
      <point x="368" y="1005"/>
      <point x="361" y="1006"/>
      <point x="345" y="1006" type="curve" smooth="yes"/>
      <point x="214" y="1006" type="line" smooth="yes"/>
      <point x="206" y="1006"/>
      <point x="204" y="1013"/>
      <point x="204" y="1033" type="curve" smooth="yes"/>
      <point x="204" y="1428" type="line" smooth="yes"/>
      <point x="204" y="1471"/>
      <point x="196" y="1475"/>
      <point x="181" y="1475" type="curve" smooth="yes"/>
      <point x="163" y="1475" type="line" smooth="yes"/>
      <point x="149" y="1475"/>
      <point x="142" y="1470"/>
      <point x="141" y="1428" type="curve" smooth="yes"/>
      <point x="127" y="1033" type="line" smooth="yes"/>
      <point x="127" y="1013"/>
      <point x="123" y="1006"/>
      <point x="117" y="1006" type="curve" smooth="yes"/>
      <point x="49" y="1006" type="line" smooth="yes"/>
      <point x="34" y="1006"/>
      <point x="26" y="1005"/>
      <point x="26" y="973" type="curve" smooth="yes"/>
      <point x="26" y="969" type="line" smooth="yes"/>
      <point x="26" y="938"/>
      <point x="34" y="937"/>
      <point x="49" y="937" type="curve" smooth="yes"/>
      <point x="117" y="937" type="line" smooth="yes"/>
      <point x="123" y="937"/>
      <point x="127" y="936"/>
      <point x="127" y="921" type="curve" smooth="yes"/>
      <point x="127" y="297" type="line" smooth="yes"/>
      <point x="127" y="70"/>
      <point x="181" y="-3"/>
    </contour>
    <contour>
      <point x="209" y="503" type="move" name="center"/>
    </contour>
    <contour>
      <point x="209" y="0" type="move" name="bottom"/>
    </contour>
  </outline>
</glyph>
<glyph name="w" format="1">
  <advance width="903"/>
  <unicode hex="0077"/>
  <outline>
    <contour>
      <point x="240" y="0" type="curve" smooth="yes"/>
      <point x="280" y="0" type="line" smooth="yes"/>
      <point x="295" y="0"/>
      <point x="311" y="23"/>
      <point x="319" y="67" type="curve" smooth="yes"/>
      <point x="448" y="823" type="line" smooth="yes"/>
      <point x="449" y="826"/>
      <point x="453" y="830"/>
      <point x="454" y="830" type="curve" smooth="yes"/>
      <point x="455" y="830"/>
      <point x="456" y="829"/>
      <point x="457" y="823" type="curve" smooth="yes"/>
      <point x="593" y="67" type="line" smooth="yes"/>
      <point x="601" y="26"/>
      <point x="616" y="0"/>
      <point x="631" y="0" type="curve" smooth="yes"/>
      <point x="672" y="0" type="line" smooth="yes"/>
      <point x="685" y="0"/>
      <point x="700" y="23"/>
      <point x="708" y="67" type="curve" smooth="yes"/>
      <point x="847" y="939" type="line"/>
      <point x="851" y="957"/>
      <point x="853" y="971"/>
      <point x="853" y="982" type="curve" smooth="yes"/>
      <point x="853" y="998"/>
      <point x="849" y="1006"/>
      <point x="841" y="1006" type="curve" smooth="yes"/>
      <point x="804" y="1006" type="line" smooth="yes"/>
      <point x="788" y="1006"/>
      <point x="778" y="986"/>
      <point x="771" y="939" type="curve" smooth="yes"/>
      <point x="657" y="123" type="line" smooth="yes"/>
      <point x="657" y="120"/>
      <point x="656" y="115"/>
      <point x="652" y="115" type="curve" smooth="yes"/>
      <point x="651" y="115"/>
      <point x="650" y="117"/>
      <point x="649" y="123" type="curve" smooth="yes"/>
      <point x="497" y="939" type="line" smooth="yes"/>
      <point x="489" y="980"/>
      <point x="484" y="1006"/>
      <point x="471" y="1006" type="curve" smooth="yes"/>
      <point x="440" y="1006" type="line" smooth="yes"/>
      <point x="424" y="1006"/>
      <point x="417" y="986"/>
      <point x="409" y="939" type="curve" smooth="yes"/>
      <point x="266" y="123" type="line" smooth="yes"/>
      <point x="265" y="117"/>
      <point x="264" y="113"/>
      <point x="262" y="113" type="curve" smooth="yes"/>
      <point x="261" y="113"/>
      <point x="260" y="116"/>
      <point x="257" y="123" type="curve"/>
      <point x="130" y="939" type="line"/>
      <point x="122" y="983"/>
      <point x="116" y="1006"/>
      <point x="100" y="1006" type="curve" smooth="yes"/>
      <point x="64" y="1006" type="line" smooth="yes"/>
      <point x="54" y="1006"/>
      <point x="50" y="996"/>
      <point x="50" y="977" type="curve" smooth="yes"/>
      <point x="50" y="967"/>
      <point x="51" y="954"/>
      <point x="54" y="939" type="curve" smooth="yes"/>
      <point x="207" y="67" type="line" smooth="yes"/>
      <point x="214" y="27"/>
      <point x="226" y="0"/>
    </contour>
    <contour>
      <point x="452" y="1006" type="move" name="top"/>
    </contour>
  </outline>
</glyph>
<glyph name="braceright" format="1">
  <advance width="499"/>
  <unicode hex="007D"/>
  <outline>
    <contour>
      <point x="132.0" y="-65.0" type="curve" smooth="yes"/>
      <point x="175.0" y="-65.0" type="line" smooth="yes"/>
      <point x="269.0" y="-65.0"/>
      <point x="291.0" y="-55.0"/>
      <point x="291.0" y="292.0" type="curve" smooth="yes"/>
      <point x="291.0" y="528.0" type="line" smooth="yes"/>
      <point x="291.0" y="680.0"/>
      <point x="295.0" y="696.0"/>
      <point x="337.0" y="696.0" type="curve" smooth="yes"/>
      <point x="381.0" y="696.0"/>
      <point x="403.0" y="692.0"/>
      <point x="403.0" y="737.0" type="curve" smooth="yes"/>
      <point x="403.0" y="742.0" type="line" smooth="yes"/>
      <point x="403.0" y="794.0"/>
      <point x="382.0" y="788.0"/>
      <point x="337.0" y="788.0" type="curve" smooth="yes"/>
      <point x="295.0" y="788.0"/>
      <point x="291.0" y="804.0"/>
      <point x="291.0" y="956.0" type="curve" smooth="yes"/>
      <point x="291.0" y="1185.0" type="line" smooth="yes"/>
      <point x="291.0" y="1532.0"/>
      <point x="269.0" y="1543.0"/>
      <point x="175.0" y="1543.0" type="curve" smooth="yes"/>
      <point x="132.0" y="1543.0" type="line" smooth="yes"/>
      <point x="117.0" y="1543.0"/>
      <point x="105.0" y="1537.0"/>
      <point x="105.0" y="1513.0" type="curve" smooth="yes"/>
      <point x="105.0" y="1494.0" type="line" smooth="yes"/>
      <point x="105.0" y="1472.0"/>
      <point x="118.0" y="1469.0"/>
      <point x="163.0" y="1469.0" type="curve" smooth="yes"/>
      <point x="216.0" y="1469.0"/>
      <point x="216.0" y="1467.0"/>
      <point x="216.0" y="1151.0" type="curve" smooth="yes"/>
      <point x="216.0" y="909.0" type="line" smooth="yes"/>
      <point x="216.0" y="781.0"/>
      <point x="227.0" y="748.0"/>
      <point x="281.0" y="738.0" type="curve"/>
      <point x="283.0" y="738.0"/>
      <point x="283.0" y="736.0"/>
      <point x="281.0" y="736.0" type="curve"/>
      <point x="227.0" y="728.0"/>
      <point x="216.0" y="697.0"/>
      <point x="216.0" y="569.0" type="curve" smooth="yes"/>
      <point x="216.0" y="327.0" type="line" smooth="yes"/>
      <point x="216.0" y="11.0"/>
      <point x="216.0" y="9.0"/>
      <point x="163.0" y="9.0" type="curve" smooth="yes"/>
      <point x="118.0" y="9.0"/>
      <point x="105.0" y="6.0"/>
      <point x="105.0" y="-16.0" type="curve" smooth="yes"/>
      <point x="105.0" y="-35.0" type="line" smooth="yes"/>
      <point x="105.0" y="-59.0"/>
      <point x="117.0" y="-65.0"/>
    </contour>
  </outline>
</glyph>
<glyph name="brokenbar" format="1">
  <advance width="446"/>
  <unicode hex="00A6"/>
  <outline>
    <contour>
      <point x="206" y="-75" type="curve" smooth="yes"/>
      <point x="239" y="-75" type="line" smooth="yes"/>
      <point x="254" y="-75"/>
      <point x="262" y="-71"/>
      <point x="262" y="-28" type="curve" smooth="yes"/>
      <point x="262" y="570" type="line" smooth="yes"/>
      <point x="262" y="613"/>
      <point x="254" y="617"/>
      <point x="239" y="617" type="curve" smooth="yes"/>
      <point x="206" y="617" type="line" smooth="yes"/>
      <point x="192" y="617"/>
      <point x="184" y="613"/>
      <point x="184" y="570" type="curve" smooth="yes"/>
      <point x="184" y="-28" type="line" smooth="yes"/>
      <point x="184" y="-71"/>
      <point x="192" y="-75"/>
    </contour>
    <contour>
      <point x="206" y="822" type="curve" smooth="yes"/>
      <point x="239" y="822" type="line" smooth="yes"/>
      <point x="254" y="822"/>
      <point x="262" y="826"/>
      <point x="262" y="869" type="curve" smooth="yes"/>
      <point x="262" y="1471" type="line" smooth="yes"/>
      <point x="262" y="1514"/>
      <point x="254" y="1518"/>
      <point x="239" y="1518" type="curve" smooth="yes"/>
      <point x="206" y="1518" type="line" smooth="yes"/>
      <point x="192" y="1518"/>
      <point x="184" y="1514"/>
      <point x="184" y="1471" type="curve" smooth="yes"/>
      <point x="184" y="869" type="line" smooth="yes"/>
      <point x="184" y="826"/>
      <point x="192" y="822"/>
    </contour>
  </outline>
</glyph>
<glyph name="section" format="1">
  <advance width="685"/>
  <unicode hex="00A7"/>
  <outline>
    <contour>
      <point x="343" y="-13" type="curve" smooth="yes"/>
      <point x="490" y="-13"/>
      <point x="574" y="100"/>
      <point x="574" y="247" type="curve" smooth="yes"/>
      <point x="574" y="356"/>
      <point x="532" y="425"/>
      <point x="474" y="478" type="curve"/>
      <point x="538" y="519"/>
      <point x="574" y="585"/>
      <point x="574" y="680" type="curve" smooth="yes"/>
      <point x="574" y="853"/>
      <point x="467" y="927"/>
      <point x="358" y="992" type="curve" smooth="yes"/>
      <point x="265" y="1047"/>
      <point x="224" y="1102"/>
      <point x="224" y="1211" type="curve" smooth="yes"/>
      <point x="224" y="1301"/>
      <point x="269" y="1389"/>
      <point x="360" y="1389" type="curve" smooth="yes"/>
      <point x="427" y="1389"/>
      <point x="465" y="1363"/>
      <point x="507" y="1318" type="curve"/>
      <point x="522" y="1323" type="line"/>
      <point x="543" y="1355" type="line"/>
      <point x="539" y="1374" type="line"/>
      <point x="489" y="1427"/>
      <point x="426" y="1451"/>
      <point x="358" y="1451" type="curve" smooth="yes"/>
      <point x="236" y="1451"/>
      <point x="155" y="1351"/>
      <point x="155" y="1208" type="curve" smooth="yes"/>
      <point x="155" y="1093"/>
      <point x="201" y="1025"/>
      <point x="262" y="973" type="curve"/>
      <point x="195" y="938"/>
      <point x="155" y="875"/>
      <point x="155" y="775" type="curve" smooth="yes"/>
      <point x="155" y="607"/>
      <point x="252" y="539"/>
      <point x="353" y="478" type="curve" smooth="yes"/>
      <point x="434" y="429"/>
      <point x="505" y="371"/>
      <point x="505" y="248" type="curve" smooth="yes"/>
      <point x="505" y="144"/>
      <point x="451" y="49"/>
      <point x="344" y="49" type="curve" smooth="yes"/>
      <point x="262" y="49"/>
      <point x="208" y="91"/>
      <point x="155" y="155" type="curve"/>
      <point x="136" y="149" type="line"/>
      <point x="119" y="120" type="line"/>
      <point x="120" y="96" type="line"/>
      <point x="181" y="22"/>
      <point x="243" y="-13"/>
    </contour>
    <contour>
      <point x="421" y="521" type="curve"/>
      <point x="421" y="521"/>
      <point x="379.0" y="547.0"/>
      <point x="358" y="559" type="curve" smooth="yes"/>
      <point x="265" y="614"/>
      <point x="224" y="669"/>
      <point x="224" y="778" type="curve" smooth="yes"/>
      <point x="224" y="855"/>
      <point x="256" y="911"/>
      <point x="322" y="930" type="curve"/>
      <point x="332" y="924"/>
      <point x="343" y="917"/>
      <point x="353" y="911" type="curve" smooth="yes"/>
      <point x="434" y="862"/>
      <point x="505" y="804"/>
      <point x="505" y="681" type="curve" smooth="yes"/>
      <point x="505" y="606"/>
      <point x="477" y="551"/>
    </contour>
  </outline>
</glyph>
<glyph name="guillemotleft" format="1">
  <advance width="663"/>
  <unicode hex="00AB"/>
  <outline>
    <contour>
      <point x="367.139" y="241.651" type="curve" smooth="yes"/>
      <point x="371.799" y="241.651"/>
      <point x="375" y="249"/>
      <point x="375" y="273" type="curve" smooth="yes"/>
      <point x="375" y="301" type="line" smooth="yes"/>
      <point x="375" y="344"/>
      <point x="371.105" y="341.486"/>
      <point x="351" y="361" type="curve" smooth="yes"/>
      <point x="113" y="592" type="line" smooth="yes"/>
      <point x="109.956" y="594.954"/>
      <point x="109" y="600"/>
      <point x="109" y="604" type="curve" smooth="yes"/>
      <point x="109" y="609"/>
      <point x="109.534" y="614.37"/>
      <point x="112" y="617" type="curve" smooth="yes"/>
      <point x="352" y="873" type="line" smooth="yes"/>
      <point x="371.356" y="893.647"/>
      <point x="375" y="894"/>
      <point x="375" y="937" type="curve" smooth="yes"/>
      <point x="375" y="952" type="line" smooth="yes"/>
      <point x="375" y="978.309"/>
      <point x="371.481" y="990.521"/>
      <point x="364.258" y="990.521" type="curve" smooth="yes"/>
      <point x="360.73" y="990.521"/>
      <point x="356.318" y="987.608"/>
      <point x="351" y="982" type="curve" smooth="yes"/>
      <point x="76" y="692" type="line" smooth="yes"/>
      <point x="52.3095" y="667.018"/>
      <point x="49.825" y="655.291"/>
      <point x="49.825" y="632.224" type="curve" smooth="yes"/>
      <point x="49.6052" y="578.318" type="line" smooth="yes"/>
      <point x="49.6052" y="556.258"/>
      <point x="52.5923" y="541.598"/>
      <point x="75" y="520" type="curve" smooth="yes"/>
      <point x="352" y="253" type="line" smooth="yes"/>
      <point x="357.378" y="247.816"/>
      <point x="362.871" y="241.651"/>
    </contour>
    <contour>
      <point x="606.899" y="241.259" type="curve" smooth="yes"/>
      <point x="611.498" y="241.259"/>
      <point x="614.463" y="248.811"/>
      <point x="614.463" y="273" type="curve" smooth="yes"/>
      <point x="614.463" y="301" type="line" smooth="yes"/>
      <point x="614.463" y="344"/>
      <point x="610.568" y="341.486"/>
      <point x="590.463" y="361" type="curve" smooth="yes"/>
      <point x="352.463" y="592" type="line" smooth="yes"/>
      <point x="349.419" y="594.954"/>
      <point x="348.463" y="600"/>
      <point x="348.463" y="604" type="curve" smooth="yes"/>
      <point x="348.463" y="609"/>
      <point x="348.997" y="614.37"/>
      <point x="351.463" y="617" type="curve" smooth="yes"/>
      <point x="591.463" y="873" type="line" smooth="yes"/>
      <point x="610.819" y="893.647"/>
      <point x="614.463" y="894"/>
      <point x="614.463" y="937" type="curve" smooth="yes"/>
      <point x="614.463" y="952" type="line" smooth="yes"/>
      <point x="614.463" y="978.309"/>
      <point x="610.944" y="990.521"/>
      <point x="603.721" y="990.521" type="curve" smooth="yes"/>
      <point x="600.192" y="990.521"/>
      <point x="595.78" y="987.608"/>
      <point x="590.463" y="982" type="curve" smooth="yes"/>
      <point x="315.463" y="692" type="line" smooth="yes"/>
      <point x="291.772" y="667.018"/>
      <point x="289.288" y="655.291"/>
      <point x="289.288" y="632.224" type="curve" smooth="yes"/>
      <point x="289.068" y="578.318" type="line" smooth="yes"/>
      <point x="289.068" y="556.258"/>
      <point x="292.055" y="541.598"/>
      <point x="314.463" y="520" type="curve" smooth="yes"/>
      <point x="591.463" y="253" type="line" smooth="yes"/>
      <point x="597.286" y="247.387"/>
      <point x="602.755" y="241.259"/>
    </contour>
  </outline>
</glyph>
<glyph name="macron" format="1">
  <advance width="540"/>
  <unicode hex="00AF"/>
  <outline>
    <contour>
      <point x="98" y="0" type="curve" smooth="yes"/>
      <point x="462" y="0" type="line" smooth="yes"/>
      <point x="475" y="0"/>
      <point x="485" y="0"/>
      <point x="485" y="27" type="curve" smooth="yes"/>
      <point x="485" y="35" type="line" smooth="yes"/>
      <point x="485" y="60"/>
      <point x="475" y="60"/>
      <point x="462" y="60" type="curve" smooth="yes"/>
      <point x="98" y="60" type="line" smooth="yes"/>
      <point x="85" y="60"/>
      <point x="75" y="60"/>
      <point x="75" y="33" type="curve" smooth="yes"/>
      <point x="75" y="25" type="line" smooth="yes"/>
      <point x="75" y="0"/>
      <point x="85" y="0"/>
    </contour>
    <contour>
      <point x="280" y="1006" type="move" name="_top"/>
    </contour>
  </outline>
</glyph>
<glyph name="plusminus" format="1">
  <advance width="801"/>
  <unicode hex="00B1"/>
  <outline>
    <contour>
      <point x="406" y="310" type="curve" smooth="yes"/>
      <point x="421" y="310" type="line" smooth="yes"/>
      <point x="439" y="310"/>
      <point x="452" y="314"/>
      <point x="452" y="355" type="curve" smooth="yes"/>
      <point x="452" y="549" type="line" smooth="yes"/>
      <point x="452" y="569"/>
      <point x="459" y="571"/>
      <point x="469" y="571" type="curve" smooth="yes"/>
      <point x="658" y="571" type="line" smooth="yes"/>
      <point x="674" y="571"/>
      <point x="689" y="575"/>
      <point x="689" y="606" type="curve" smooth="yes"/>
      <point x="689" y="613" type="line" smooth="yes"/>
      <point x="689" y="645"/>
      <point x="674" y="648"/>
      <point x="658" y="648" type="curve" smooth="yes"/>
      <point x="469" y="648" type="line" smooth="yes"/>
      <point x="459" y="648"/>
      <point x="452" y="650"/>
      <point x="452" y="670" type="curve" smooth="yes"/>
      <point x="452" y="861" type="line" smooth="yes"/>
      <point x="452" y="902"/>
      <point x="439" y="906"/>
      <point x="421" y="906" type="curve" smooth="yes"/>
      <point x="406" y="906" type="line" smooth="yes"/>
      <point x="387" y="906"/>
      <point x="373" y="902"/>
      <point x="373" y="861" type="curve" smooth="yes"/>
      <point x="373" y="670" type="line" smooth="yes"/>
      <point x="373" y="650"/>
      <point x="367" y="648"/>
      <point x="358" y="648" type="curve" smooth="yes"/>
      <point x="166" y="648" type="line" smooth="yes"/>
      <point x="149" y="648"/>
      <point x="135" y="645"/>
      <point x="135" y="613" type="curve" smooth="yes"/>
      <point x="135" y="606" type="line" smooth="yes"/>
      <point x="135" y="575"/>
      <point x="149" y="571"/>
      <point x="166" y="571" type="curve" smooth="yes"/>
      <point x="358" y="571" type="line" smooth="yes"/>
      <point x="367" y="571"/>
      <point x="373" y="569"/>
      <point x="373" y="549" type="curve" smooth="yes"/>
      <point x="373" y="355" type="line" smooth="yes"/>
      <point x="373" y="314"/>
      <point x="387" y="310"/>
    </contour>
    <contour>
      <point x="166" y="71" type="curve" smooth="yes"/>
      <point x="658" y="71" type="line" smooth="yes"/>
      <point x="674" y="71"/>
      <point x="689" y="75"/>
      <point x="689" y="106" type="curve" smooth="yes"/>
      <point x="689" y="113" type="line" smooth="yes"/>
      <point x="689" y="145"/>
      <point x="674" y="148"/>
      <point x="658" y="148" type="curve" smooth="yes"/>
      <point x="166" y="148" type="line" smooth="yes"/>
      <point x="149" y="148"/>
      <point x="135" y="145"/>
      <point x="135" y="113" type="curve" smooth="yes"/>
      <point x="135" y="106" type="line" smooth="yes"/>
      <point x="135" y="75"/>
      <point x="149" y="71"/>
    </contour>
  </outline>
</glyph>
<glyph name="acute" format="1">
  <advance width="595"/>
  <unicode hex="00B4"/>
  <outline>
    <contour>
      <point x="382" y="1166" type="curve" smooth="yes"/>
      <point x="394" y="1166" type="line" smooth="yes"/>
      <point x="408" y="1166"/>
      <point x="411" y="1188"/>
      <point x="414" y="1205" type="curve" smooth="yes"/>
      <point x="476" y="1533" type="line" smooth="yes"/>
      <point x="478" y="1545"/>
      <point x="480" y="1559"/>
      <point x="480" y="1570" type="curve" smooth="yes"/>
      <point x="480" y="1586"/>
      <point x="477" y="1598"/>
      <point x="470" y="1598" type="curve" smooth="yes"/>
      <point x="415" y="1598" type="line" smooth="yes"/>
      <point x="399" y="1598"/>
      <point x="392" y="1586"/>
      <point x="389" y="1543" type="curve" smooth="yes"/>
      <point x="368" y="1233" type="line" smooth="yes"/>
      <point x="367" y="1219"/>
      <point x="367" y="1207"/>
      <point x="367" y="1198" type="curve" smooth="yes"/>
      <point x="367" y="1171"/>
      <point x="372" y="1166"/>
    </contour>
    <contour>
      <point x="423.5" y="1006" type="move" name="_top"/>
    </contour>
  </outline>
</glyph>
<glyph name="paragraph" format="1">
  <advance width="897"/>
  <unicode hex="00B6"/>
  <outline>
    <contour>
      <point x="480" y="-1" type="curve" smooth="yes"/>
      <point x="484" y="-1" type="line" smooth="yes"/>
      <point x="517" y="-1"/>
      <point x="521" y="23"/>
      <point x="521" y="66" type="curve" smooth="yes"/>
      <point x="521" y="896" type="line"/>
      <point x="694" y="896" type="line" smooth="yes"/>
      <point x="704" y="896"/>
      <point x="713" y="887"/>
      <point x="713" y="875" type="curve" smooth="yes"/>
      <point x="713" y="66" type="line" smooth="yes"/>
      <point x="713" y="23"/>
      <point x="717" y="-1"/>
      <point x="750" y="-1" type="curve" smooth="yes"/>
      <point x="754" y="-1" type="line" smooth="yes"/>
      <point x="787" y="-1"/>
      <point x="791" y="23"/>
      <point x="791" y="66" type="curve" smooth="yes"/>
      <point x="791" y="1338" type="line" smooth="yes"/>
      <point x="791" y="1381"/>
      <point x="802" y="1405"/>
      <point x="759" y="1416" type="curve" smooth="yes"/>
      <point x="721" y="1426"/>
      <point x="666" y="1438"/>
      <point x="491" y="1438" type="curve" smooth="yes"/>
      <point x="200" y="1438"/>
      <point x="73" y="1360"/>
      <point x="73" y="1163" type="curve" smooth="yes"/>
      <point x="73" y="959"/>
      <point x="244" y="896"/>
      <point x="423" y="896" type="curve" smooth="yes"/>
      <point x="443" y="896" type="line"/>
      <point x="443" y="66" type="line" smooth="yes"/>
      <point x="443" y="23"/>
      <point x="447" y="-1"/>
    </contour>
  </outline>
</glyph>
<glyph name="cedilla" format="1">
  <advance width="245"/>
  <unicode hex="00B8"/>
  <outline>
    <contour>
      <point x="137" y="-612" type="curve" smooth="yes"/>
      <point x="216" y="-612"/>
      <point x="242" y="-548"/>
      <point x="242" y="-400" type="curve" smooth="yes"/>
      <point x="242" y="-289"/>
      <point x="186" y="-156"/>
      <point x="149" y="-156" type="curve" smooth="yes"/>
      <point x="124" y="-156" type="line" smooth="yes"/>
      <point x="120" y="-156"/>
      <point x="119" y="-163"/>
      <point x="119" y="-173" type="curve" smooth="yes"/>
      <point x="119" y="-214" type="line" smooth="yes"/>
      <point x="119" y="-225"/>
      <point x="124" y="-224"/>
      <point x="124" y="-224" type="curve"/>
      <point x="137" y="-224" type="line" smooth="yes"/>
      <point x="155" y="-224"/>
      <point x="195" y="-331"/>
      <point x="195" y="-407" type="curve" smooth="yes"/>
      <point x="195" y="-517"/>
      <point x="176" y="-557"/>
      <point x="141" y="-557" type="curve" smooth="yes"/>
      <point x="103" y="-557"/>
      <point x="84" y="-514"/>
      <point x="84" y="-461" type="curve" smooth="yes"/>
      <point x="84" y="-442"/>
      <point x="94" y="-373"/>
      <point x="77" y="-373" type="curve" smooth="yes"/>
      <point x="55" y="-373" type="line" smooth="yes"/>
      <point x="38" y="-373"/>
      <point x="38" y="-443"/>
      <point x="38" y="-464" type="curve" smooth="yes"/>
      <point x="38" y="-572"/>
      <point x="88" y="-612"/>
    </contour>
    <contour>
      <point x="140" y="0" type="move" name="_bottom"/>
    </contour>
  </outline>
</glyph>
<glyph name="Thorn" format="1">
  <advance width="765"/>
  <unicode hex="00DE"/>
  <outline>
    <contour>
      <point x="126" y="0" type="curve" smooth="yes"/>
      <point x="159" y="0" type="line" smooth="yes"/>
      <point x="174" y="0"/>
      <point x="182" y="6"/>
      <point x="182" y="42" type="curve" smooth="yes"/>
      <point x="182" y="382" type="line" smooth="yes"/>
      <point x="182" y="390"/>
      <point x="184" y="394"/>
      <point x="189" y="394" type="curve" smooth="yes"/>
      <point x="365" y="394" type="line" smooth="yes"/>
      <point x="547" y="394"/>
      <point x="705" y="411.248"/>
      <point x="705" y="770" type="curve" smooth="yes"/>
      <point x="705" y="1156.01"/>
      <point x="520" y="1164"/>
      <point x="332" y="1164" type="curve" smooth="yes"/>
      <point x="182" y="1164" type="line"/>
      <point x="182" y="1351" type="line" smooth="yes"/>
      <point x="182" y="1388"/>
      <point x="174" y="1393"/>
      <point x="160" y="1393" type="curve" smooth="yes"/>
      <point x="127" y="1393" type="line" smooth="yes"/>
      <point x="112" y="1393"/>
      <point x="104" y="1387"/>
      <point x="104" y="1351" type="curve" smooth="yes"/>
      <point x="104" y="42" type="line" smooth="yes"/>
      <point x="104" y="5"/>
      <point x="112" y="0"/>
    </contour>
    <contour>
      <point x="187" y="454" type="line" smooth="yes"/>
      <point x="182" y="454"/>
      <point x="182" y="459"/>
      <point x="182" y="464" type="curve" smooth="yes"/>
      <point x="182" y="1095" type="line" smooth="yes"/>
      <point x="182" y="1101"/>
      <point x="184" y="1104"/>
      <point x="188" y="1104" type="curve" smooth="yes"/>
      <point x="332" y="1104" type="line" smooth="yes"/>
      <point x="500" y="1104"/>
      <point x="628" y="1095.3"/>
      <point x="628" y="770" type="curve" smooth="yes"/>
      <point x="628" y="479.213"/>
      <point x="535" y="454"/>
      <point x="363" y="454" type="curve" smooth="yes"/>
    </contour>
  </outline>
</glyph>
<glyph name="eth" format="1">
  <advance width="737"/>
  <unicode hex="00F0"/>
  <outline>
    <contour>
      <point x="359" y="-12" type="curve" smooth="yes"/>
      <point x="602" y="-12"/>
      <point x="655" y="197"/>
      <point x="655" y="487" type="curve" smooth="yes"/>
      <point x="655" y="716"/>
      <point x="574" y="931"/>
      <point x="436" y="1118" type="curve"/>
      <point x="617" y="1202" type="line" smooth="yes"/>
      <point x="629" y="1207"/>
      <point x="638" y="1211"/>
      <point x="626" y="1236" type="curve" smooth="yes"/>
      <point x="623" y="1243" type="line" smooth="yes"/>
      <point x="612" y="1266"/>
      <point x="603" y="1262"/>
      <point x="592" y="1256" type="curve" smooth="yes"/>
      <point x="398" y="1166" type="line"/>
      <point x="346" y="1231"/>
      <point x="288" y="1293"/>
      <point x="221" y="1348" type="curve" smooth="yes"/>
      <point x="216" y="1352"/>
      <point x="210" y="1354"/>
      <point x="204" y="1354" type="curve" smooth="yes"/>
      <point x="184" y="1354"/>
      <point x="160" y="1335"/>
      <point x="160" y="1322" type="curve" smooth="yes"/>
      <point x="160" y="1320"/>
      <point x="161" y="1318"/>
      <point x="163" y="1316" type="curve" smooth="yes"/>
      <point x="230" y="1262"/>
      <point x="289" y="1202"/>
      <point x="340" y="1139" type="curve"/>
      <point x="165" y="1058" type="line" smooth="yes"/>
      <point x="153" y="1053"/>
      <point x="144" y="1049"/>
      <point x="156" y="1024" type="curve" smooth="yes"/>
      <point x="159" y="1017" type="line" smooth="yes"/>
      <point x="170" y="994"/>
      <point x="179" y="998"/>
      <point x="190" y="1004" type="curve" smooth="yes"/>
      <point x="378" y="1091" type="line"/>
      <point x="465" y="975"/>
      <point x="523" y="856"/>
      <point x="547" y="758" type="curve"/>
      <point x="488" y="826"/>
      <point x="417" y="846"/>
      <point x="357" y="846" type="curve" smooth="yes"/>
      <point x="124" y="846"/>
      <point x="60" y="651"/>
      <point x="60" y="422" type="curve" smooth="yes"/>
      <point x="60" y="73"/>
      <point x="193" y="-12"/>
    </contour>
    <contour>
      <point x="353" y="51" type="curve" smooth="yes"/>
      <point x="211" y="51"/>
      <point x="134" y="136"/>
      <point x="134" y="431" type="curve" smooth="yes"/>
      <point x="134" y="603"/>
      <point x="167" y="781"/>
      <point x="339" y="781" type="curve" smooth="yes"/>
      <point x="518" y="781"/>
      <point x="579" y="666"/>
      <point x="579" y="478" type="curve" smooth="yes"/>
      <point x="579" y="87"/>
      <point x="457" y="51"/>
    </contour>
  </outline>
</glyph>
<glyph name="thorn" format="1">
  <advance width="684"/>
  <unicode hex="00FE"/>
  <outline>
    <contour>
      <point x="118" y="-512" type="curve" smooth="yes"/>
      <point x="150" y="-512" type="line" smooth="yes"/>
      <point x="165" y="-512"/>
      <point x="173" y="-488"/>
      <point x="173" y="-445" type="curve" smooth="yes"/>
      <point x="173" y="182.313" type="line"/>
      <point x="218.573" y="43.1675"/>
      <point x="293.51" y="-12"/>
      <point x="365" y="-12" type="curve" smooth="yes"/>
      <point x="476" y="-12"/>
      <point x="608" y="107"/>
      <point x="608" y="504" type="curve" smooth="yes"/>
      <point x="608" y="912"/>
      <point x="498" y="1019"/>
      <point x="376" y="1019" type="curve" smooth="yes"/>
      <point x="299" y="1019"/>
      <point x="218" y="955"/>
      <point x="176" y="823" type="curve"/>
      <point x="176" y="823"/>
      <point x="175" y="819"/>
      <point x="174" y="819" type="curve" smooth="yes"/>
      <point x="174" y="819"/>
      <point x="173" y="820"/>
      <point x="173" y="827" type="curve" smooth="yes"/>
      <point x="173" y="1371" type="line" smooth="yes"/>
      <point x="173" y="1414"/>
      <point x="165" y="1438"/>
      <point x="150" y="1438" type="curve" smooth="yes"/>
      <point x="118" y="1438" type="line" smooth="yes"/>
      <point x="104" y="1438"/>
      <point x="96" y="1414"/>
      <point x="96" y="1371" type="curve" smooth="yes"/>
      <point x="96" y="-445" type="line" smooth="yes"/>
      <point x="96" y="-488"/>
      <point x="104" y="-512"/>
    </contour>
    <contour>
      <point x="353" y="50" type="curve" smooth="yes"/>
      <point x="254" y="50"/>
      <point x="173" y="247"/>
      <point x="173" y="504" type="curve" smooth="yes"/>
      <point x="173" y="784"/>
      <point x="271" y="957"/>
      <point x="364" y="957" type="curve" smooth="yes"/>
      <point x="455" y="957"/>
      <point x="531" y="849"/>
      <point x="531" y="504" type="curve" smooth="yes"/>
      <point x="531" y="164"/>
      <point x="449" y="50"/>
    </contour>
  </outline>
</glyph>
<glyph name="Dcroat" format="1">
  <advance width="883"/>
  <unicode hex="0110"/>
  <outline>
    <contour>
      <point x="193" y="60" type="line" smooth="yes"/>
      <point x="185" y="60"/>
      <point x="182" y="64"/>
      <point x="182" y="78" type="curve" smooth="yes"/>
      <point x="182" y="701" type="line"/>
      <point x="402" y="701" type="line" smooth="yes"/>
      <point x="415" y="701"/>
      <point x="425" y="701"/>
      <point x="425" y="728" type="curve" smooth="yes"/>
      <point x="425" y="736" type="line" smooth="yes"/>
      <point x="425" y="761"/>
      <point x="415" y="761"/>
      <point x="402" y="761" type="curve" smooth="yes"/>
      <point x="182" y="761" type="line"/>
      <point x="182" y="1364" type="line" smooth="yes"/>
      <point x="182" y="1374"/>
      <point x="186" y="1378"/>
      <point x="192" y="1378" type="curve" smooth="yes"/>
      <point x="412" y="1378" type="line" smooth="yes"/>
      <point x="646" y="1378"/>
      <point x="718" y="1162"/>
      <point x="718" y="721" type="curve" smooth="yes"/>
      <point x="718" y="222"/>
      <point x="663" y="60"/>
      <point x="412" y="60" type="curve" smooth="yes"/>
    </contour>
    <contour>
      <point x="126" y="0" type="curve" smooth="yes"/>
      <point x="412" y="0" type="line" smooth="yes"/>
      <point x="693" y="0"/>
      <point x="796" y="141"/>
      <point x="796" y="721" type="curve" smooth="yes"/>
      <point x="796" y="1293"/>
      <point x="653" y="1438"/>
      <point x="412" y="1438" type="curve" smooth="yes"/>
      <point x="126" y="1438" type="line" smooth="yes"/>
      <point x="112" y="1438"/>
      <point x="104" y="1434"/>
      <point x="104" y="1411" type="curve" smooth="yes"/>
      <point x="104" y="761" type="line"/>
      <point x="38" y="761" type="line" smooth="yes"/>
      <point x="25" y="761"/>
      <point x="15" y="761"/>
      <point x="15" y="734" type="curve" smooth="yes"/>
      <point x="15" y="726" type="line" smooth="yes"/>
      <point x="15" y="701"/>
      <point x="25" y="701"/>
      <point x="38" y="701" type="curve" smooth="yes"/>
      <point x="104" y="701" type="line"/>
      <point x="104" y="37" type="line" smooth="yes"/>
      <point x="104" y="4"/>
      <point x="112" y="0"/>
    </contour>
  </outline>
</glyph>
<glyph name="hbar" format="1">
  <advance width="639"/>
  <unicode hex="0127"/>
  <outline>
    <contour>
      <point x="118" y="0" type="curve" smooth="yes"/>
      <point x="151" y="0" type="line" smooth="yes"/>
      <point x="166" y="0"/>
      <point x="173" y="9"/>
      <point x="173" y="52" type="curve" smooth="yes"/>
      <point x="173" y="613" type="line" smooth="yes"/>
      <point x="173" y="773"/>
      <point x="271" y="957"/>
      <point x="370" y="957" type="curve" smooth="yes"/>
      <point x="451" y="957"/>
      <point x="476" y="858"/>
      <point x="476" y="633" type="curve" smooth="yes"/>
      <point x="476" y="52" type="line" smooth="yes"/>
      <point x="476" y="9"/>
      <point x="483" y="0"/>
      <point x="498" y="0" type="curve" smooth="yes"/>
      <point x="530" y="0" type="line" smooth="yes"/>
      <point x="543" y="0"/>
      <point x="553" y="9"/>
      <point x="553" y="52" type="curve" smooth="yes"/>
      <point x="553" y="599" type="line" smooth="yes"/>
      <point x="553" y="935"/>
      <point x="501" y="1019"/>
      <point x="375" y="1019" type="curve" smooth="yes"/>
      <point x="307" y="1019"/>
      <point x="225" y="971"/>
      <point x="180" y="820" type="curve" smooth="yes"/>
      <point x="179" y="817"/>
      <point x="177" y="816"/>
      <point x="175" y="816" type="curve" smooth="yes"/>
      <point x="174" y="816"/>
      <point x="173" y="817"/>
      <point x="173" y="821" type="curve" smooth="yes"/>
      <point x="173" y="1191" type="line"/>
      <point x="438" y="1191" type="line" smooth="yes"/>
      <point x="451.001" y="1191"/>
      <point x="461" y="1191"/>
      <point x="461" y="1218" type="curve" smooth="yes"/>
      <point x="461" y="1226" type="line" smooth="yes"/>
      <point x="461" y="1251"/>
      <point x="451.001" y="1251"/>
      <point x="438" y="1251" type="curve" smooth="yes"/>
      <point x="173" y="1251" type="line"/>
      <point x="173" y="1382" type="line" smooth="yes"/>
      <point x="173" y="1425"/>
      <point x="165" y="1438"/>
      <point x="150" y="1438" type="curve" smooth="yes"/>
      <point x="118" y="1438" type="line" smooth="yes"/>
      <point x="104" y="1438"/>
      <point x="96" y="1425"/>
      <point x="96" y="1382" type="curve" smooth="yes"/>
      <point x="96" y="1251" type="line"/>
      <point x="41" y="1251" type="line" smooth="yes"/>
      <point x="28" y="1251"/>
      <point x="18" y="1251"/>
      <point x="18" y="1224" type="curve" smooth="yes"/>
      <point x="18" y="1216" type="line" smooth="yes"/>
      <point x="18" y="1191"/>
      <point x="28" y="1191"/>
      <point x="41" y="1191" type="curve" smooth="yes"/>
      <point x="96" y="1191" type="line"/>
      <point x="96" y="52" type="line" smooth="yes"/>
      <point x="96" y="9"/>
      <point x="104" y="0"/>
    </contour>
  </outline>
</glyph>
<glyph name="dotlessi" format="1">
  <advance width="281"/>
  <unicode hex="0131"/>
  <outline>
    <contour>
      <point x="129" y="0" type="curve" smooth="yes"/>
      <point x="161" y="0" type="line" smooth="yes"/>
      <point x="176" y="0"/>
      <point x="183" y="4"/>
      <point x="183" y="47" type="curve" smooth="yes"/>
      <point x="183" y="959" type="line" smooth="yes"/>
      <point x="183" y="1002"/>
      <point x="176" y="1006"/>
      <point x="161" y="1006" type="curve" smooth="yes"/>
      <point x="129" y="1006" type="line" smooth="yes"/>
      <point x="114" y="1006"/>
      <point x="106" y="1002"/>
      <point x="106" y="959" type="curve" smooth="yes"/>
      <point x="106" y="47" type="line" smooth="yes"/>
      <point x="106" y="4"/>
      <point x="114" y="0"/>
    </contour>
    <contour>
      <point x="141" y="1006" type="move" name="top"/>
    </contour>
    <contour>
      <point x="253" y="10" type="move" name="ogonek"/>
    </contour>
  </outline>
</glyph>
<glyph name="lslash" format="1">
  <advance width="280"/>
  <unicode hex="0142"/>
  <outline>
    <contour>
      <point x="163" y="0" type="line" smooth="yes"/>
      <point x="178" y="0"/>
      <point x="186" y="24"/>
      <point x="186" y="67" type="curve" smooth="yes"/>
      <point x="186" y="809" type="line"/>
      <point x="301" y="838" type="line" smooth="yes"/>
      <point x="315" y="842"/>
      <point x="328" y="832"/>
      <point x="328" y="875" type="curve" smooth="yes"/>
      <point x="328" y="891" type="line" smooth="yes"/>
      <point x="328" y="934"/>
      <point x="315" y="932"/>
      <point x="301" y="928" type="curve" smooth="yes"/>
      <point x="186" y="899" type="line"/>
      <point x="186" y="1371" type="line" smooth="yes"/>
      <point x="186" y="1414"/>
      <point x="178" y="1438"/>
      <point x="163" y="1438" type="curve" smooth="yes"/>
      <point x="131" y="1438" type="line" smooth="yes"/>
      <point x="117" y="1438"/>
      <point x="109" y="1414"/>
      <point x="109" y="1371" type="curve" smooth="yes"/>
      <point x="109" y="879" type="line"/>
      <point x="-11" y="848" type="line" smooth="yes"/>
      <point x="-25" y="844"/>
      <point x="-38" y="854"/>
      <point x="-38" y="811" type="curve" smooth="yes"/>
      <point x="-38" y="795" type="line" smooth="yes"/>
      <point x="-38" y="752"/>
      <point x="-25" y="754"/>
      <point x="-11" y="758" type="curve" smooth="yes"/>
      <point x="109" y="789" type="line"/>
      <point x="109" y="67" type="line" smooth="yes"/>
      <point x="109" y="24"/>
      <point x="117" y="0"/>
      <point x="131" y="0" type="curve" smooth="yes"/>
    </contour>
  </outline>
</glyph>
<glyph name="oe" format="1">
  <advance width="1054"/>
  <unicode hex="0153"/>
  <outline>
    <contour>
      <point x="329" y="-12" type="curve" smooth="yes"/>
      <point x="421.502" y="-12"/>
      <point x="504.404" y="44.0918"/>
      <point x="537.418" y="220.073" type="curve"/>
      <point x="580.8" y="57.9365"/>
      <point x="644.69" y="-12"/>
      <point x="750" y="-12" type="curve" smooth="yes"/>
      <point x="900" y="-12"/>
      <point x="958" y="120"/>
      <point x="958" y="256" type="curve" smooth="yes"/>
      <point x="958" y="289" type="line" smooth="yes"/>
      <point x="958" y="299"/>
      <point x="953" y="302"/>
      <point x="948" y="302" type="curve" smooth="yes"/>
      <point x="909" y="302" type="line" smooth="yes"/>
      <point x="907" y="302"/>
      <point x="905" y="291"/>
      <point x="904" y="284" type="curve" smooth="yes"/>
      <point x="897" y="200"/>
      <point x="890" y="50"/>
      <point x="756" y="50" type="curve" smooth="yes"/>
      <point x="597" y="50"/>
      <point x="571" y="317"/>
      <point x="570" y="477" type="curve" smooth="yes"/>
      <point x="570" y="485"/>
      <point x="573" y="487"/>
      <point x="576" y="487" type="curve" smooth="yes"/>
      <point x="923" y="487" type="line" smooth="yes"/>
      <point x="962.0" y="487.0"/>
      <point x="968" y="607"/>
      <point x="968" y="607" type="curve"/>
      <point x="955" y="861"/>
      <point x="905" y="1019"/>
      <point x="742" y="1019" type="curve" smooth="yes"/>
      <point x="639.859" y="1019"/>
      <point x="580.269" y="962.026"/>
      <point x="534.812" y="817.706" type="curve"/>
      <point x="494.175" y="969.018"/>
      <point x="423.643" y="1019"/>
      <point x="334" y="1019" type="curve" smooth="yes"/>
      <point x="197" y="1019"/>
      <point x="80" y="951"/>
      <point x="80" y="503" type="curve" smooth="yes"/>
      <point x="80" y="65"/>
      <point x="203" y="-12"/>
    </contour>
    <contour>
      <point x="574" y="539" type="line" smooth="yes"/>
      <point x="572" y="539"/>
      <point x="572" y="598"/>
      <point x="572" y="602" type="curve" smooth="yes"/>
      <point x="594" y="906"/>
      <point x="660" y="957"/>
      <point x="741" y="957" type="curve" smooth="yes"/>
      <point x="863" y="957"/>
      <point x="894" y="802"/>
      <point x="903" y="541" type="curve"/>
      <point x="903" y="539" type="line"/>
    </contour>
    <contour>
      <point x="328" y="50" type="curve" smooth="yes"/>
      <point x="229" y="50"/>
      <point x="158" y="115"/>
      <point x="158" y="503" type="curve" smooth="yes"/>
      <point x="158" y="915"/>
      <point x="235" y="957"/>
      <point x="328" y="957" type="curve" smooth="yes"/>
      <point x="418" y="957"/>
      <point x="496" y="917"/>
      <point x="496" y="503" type="curve" smooth="yes"/>
      <point x="496" y="112"/>
      <point x="424" y="50"/>
    </contour>
    <contour>
      <point x="527" y="1006" type="move" name="top"/>
    </contour>
  </outline>
</glyph>
<glyph name="circumflex" format="1">
  <advance width="291"/>
  <unicode hex="02C6"/>
  <outline>
    <contour>
      <point x="62" y="1240" type="curve" smooth="yes"/>
      <point x="70" y="1240"/>
      <point x="77" y="1242"/>
      <point x="80" y="1248" type="curve" smooth="yes"/>
      <point x="137" y="1353" type="line" smooth="yes"/>
      <point x="140" y="1359"/>
      <point x="143" y="1363"/>
      <point x="146" y="1363" type="curve" smooth="yes"/>
      <point x="149" y="1363"/>
      <point x="152" y="1359"/>
      <point x="155" y="1353" type="curve" smooth="yes"/>
      <point x="212" y="1248" type="line" smooth="yes"/>
      <point x="215" y="1242"/>
      <point x="222" y="1240"/>
      <point x="230" y="1240" type="curve" smooth="yes"/>
      <point x="246" y="1240"/>
      <point x="266" y="1249"/>
      <point x="266" y="1263" type="curve" smooth="yes"/>
      <point x="266" y="1265"/>
      <point x="266" y="1267"/>
      <point x="265" y="1269" type="curve" smooth="yes"/>
      <point x="208" y="1409" type="line" smooth="yes"/>
      <point x="188" y="1458"/>
      <point x="175" y="1476"/>
      <point x="154" y="1476" type="curve" smooth="yes"/>
      <point x="138" y="1476" type="line" smooth="yes"/>
      <point x="117" y="1476"/>
      <point x="104" y="1458"/>
      <point x="84" y="1409" type="curve" smooth="yes"/>
      <point x="27" y="1269" type="line" smooth="yes"/>
      <point x="26" y="1267"/>
      <point x="26" y="1265"/>
      <point x="26" y="1263" type="curve" smooth="yes"/>
      <point x="26" y="1249"/>
      <point x="46" y="1240"/>
    </contour>
    <contour>
      <point x="146" y="1006" type="move" name="_top"/>
    </contour>
  </outline>
</glyph>
<glyph name="breve" format="1">
  <advance width="1176"/>
  <unicode hex="02D8"/>
  <outline>
    <contour>
      <point x="594.538" y="1293.15" type="curve" smooth="yes"/>
      <point x="679.023" y="1293.15"/>
      <point x="764" y="1348.75"/>
      <point x="764" y="1458" type="curve"/>
      <point x="704" y="1458" type="line"/>
      <point x="704" y="1396.23"/>
      <point x="649.35" y="1364.78"/>
      <point x="595.027" y="1364.78" type="curve" smooth="yes"/>
      <point x="541.354" y="1364.78"/>
      <point x="488" y="1395.48"/>
      <point x="488" y="1458" type="curve"/>
      <point x="428" y="1458" type="line"/>
      <point x="428" y="1347.47"/>
      <point x="511.028" y="1293.15"/>
    </contour>
    <contour>
      <point x="596" y="1006" type="move" name="_top"/>
    </contour>
  </outline>
</glyph>
<glyph name="dotaccent" format="1">
  <advance width="332"/>
  <unicode hex="02D9"/>
  <outline>
    <contour>
      <point x="-36" y="122" type="curve" smooth="yes"/>
      <point x="46" y="122" type="line" smooth="yes"/>
      <point x="61" y="122"/>
      <point x="72" y="136"/>
      <point x="72" y="179" type="curve" smooth="yes"/>
      <point x="72" y="229" type="line" smooth="yes"/>
      <point x="72" y="272"/>
      <point x="61" y="286"/>
      <point x="46" y="286" type="curve" smooth="yes"/>
      <point x="-36" y="286" type="line" smooth="yes"/>
      <point x="-50" y="286"/>
      <point x="-62" y="272"/>
      <point x="-62" y="229" type="curve" smooth="yes"/>
      <point x="-62" y="179" type="line" smooth="yes"/>
      <point x="-62" y="136"/>
      <point x="-50" y="122"/>
    </contour>
    <contour>
      <point x="-38" y="1006" type="move" name="_top"/>
    </contour>
  </outline>
</glyph>
<glyph name="ring" format="1">
  <advance width="597"/>
  <unicode hex="02DA"/>
  <outline>
    <contour>
      <point x="288" y="248" type="curve" smooth="yes"/>
      <point x="257" y="248"/>
      <point x="201" y="268"/>
      <point x="201" y="359" type="curve" smooth="yes"/>
      <point x="201" y="458"/>
      <point x="259" y="470"/>
      <point x="288" y="470" type="curve" smooth="yes"/>
      <point x="316" y="470"/>
      <point x="374" y="458"/>
      <point x="374" y="359" type="curve" smooth="yes"/>
      <point x="374" y="267"/>
      <point x="319" y="248"/>
    </contour>
    <contour>
      <point x="288" y="211" type="curve" smooth="yes"/>
      <point x="329" y="211"/>
      <point x="420" y="236"/>
      <point x="420" y="359" type="curve" smooth="yes"/>
      <point x="420" y="487"/>
      <point x="333" y="508"/>
      <point x="288" y="508" type="curve" smooth="yes"/>
      <point x="242" y="508"/>
      <point x="155" y="487"/>
      <point x="155" y="359" type="curve" smooth="yes"/>
      <point x="155" y="235"/>
      <point x="246" y="211"/>
    </contour>
    <contour>
      <point x="287.5" y="1006" type="move" name="_top"/>
    </contour>
  </outline>
</glyph>
<glyph name="dblgravecmb" format="1">
  <advance width="594"/>
  <unicode hex="030F"/>
  <outline>
    <contour>
      <point x="203" y="1166" type="curve" smooth="yes"/>
      <point x="210" y="1166" type="line" smooth="yes"/>
      <point x="216.364" y="1166"/>
      <point x="218.203" y="1174.77"/>
      <point x="218.203" y="1186.82" type="curve" smooth="yes"/>
      <point x="218.203" y="1200.65"/>
      <point x="215.78" y="1218.81"/>
      <point x="215" y="1233" type="curve" smooth="yes"/>
      <point x="194" y="1463" type="line" smooth="yes"/>
      <point x="191" y="1506"/>
      <point x="175" y="1518"/>
      <point x="158" y="1518" type="curve" smooth="yes"/>
      <point x="123" y="1518" type="line" smooth="yes"/>
      <point x="111.539" y="1518"/>
      <point x="102.099" y="1506.57"/>
      <point x="102.099" y="1484.38" type="curve" smooth="yes"/>
      <point x="102.099" y="1475.59"/>
      <point x="103.579" y="1465.12"/>
      <point x="107" y="1453" type="curve" smooth="yes"/>
      <point x="177" y="1205" type="line"/>
      <point x="185.167" y="1182"/>
      <point x="187.833" y="1166"/>
    </contour>
    <contour>
      <point x="404" y="1166" type="curve" smooth="yes"/>
      <point x="411" y="1166" type="line" smooth="yes"/>
      <point x="419.791" y="1166"/>
      <point x="422.314" y="1174.97"/>
      <point x="422.314" y="1187.13" type="curve" smooth="yes"/>
      <point x="422.314" y="1201.12"/>
      <point x="418.976" y="1219.34"/>
      <point x="418" y="1233" type="curve" smooth="yes"/>
      <point x="397" y="1463" type="line"/>
      <point x="395" y="1506"/>
      <point x="379" y="1518"/>
      <point x="363" y="1518" type="curve" smooth="yes"/>
      <point x="327" y="1518" type="line" smooth="yes"/>
      <point x="315.522" y="1518"/>
      <point x="306.254" y="1506.52"/>
      <point x="306.254" y="1484.27" type="curve" smooth="yes"/>
      <point x="306.254" y="1475.5"/>
      <point x="307.692" y="1465.06"/>
      <point x="311" y="1453" type="curve" smooth="yes"/>
      <point x="379" y="1205" type="line" smooth="yes"/>
      <point x="386" y="1181"/>
      <point x="390" y="1166"/>
    </contour>
    <contour>
      <point x="262.206" y="1006" type="move" name="_top"/>
    </contour>
  </outline>
</glyph>
<glyph name="endash" format="1">
  <advance width="1024"/>
  <unicode hex="2013"/>
  <outline>
    <contour>
      <point x="77" y="484" type="line"/>
      <point x="944" y="484" type="line"/>
      <point x="944" y="659" type="line"/>
      <point x="77" y="659" type="line"/>
    </contour>
  </outline>
</glyph>
<glyph name="emdash" format="1">
  <advance width="2048"/>
  <unicode hex="2014"/>
  <outline>
    <contour>
      <point x="77" y="484" type="line"/>
      <point x="1968" y="484" type="line"/>
      <point x="1968" y="659" type="line"/>
      <point x="77" y="659" type="line"/>
    </contour>
  </outline>
</glyph>
<glyph name="quotedblleft" format="1">
  <advance width="494"/>
  <unicode hex="201C"/>
  <outline>
    <contour>
      <point x="115" y="911" type="curve" smooth="yes"/>
      <point x="182" y="911" type="line" smooth="yes"/>
      <point x="196" y="911"/>
      <point x="203" y="932"/>
      <point x="203" y="975" type="curve" smooth="yes"/>
      <point x="203" y="1178" type="line" smooth="yes"/>
      <point x="203" y="1216"/>
      <point x="195" y="1228"/>
      <point x="182" y="1228" type="curve" smooth="yes"/>
      <point x="153" y="1228" type="line" smooth="yes"/>
      <point x="148" y="1228"/>
      <point x="147" y="1239"/>
      <point x="147" y="1255" type="curve" smooth="yes"/>
      <point x="147" y="1279"/>
      <point x="159" y="1356"/>
      <point x="182" y="1399" type="curve" smooth="yes"/>
      <point x="197" y="1426"/>
      <point x="203" y="1420"/>
      <point x="203" y="1474" type="curve" smooth="yes"/>
      <point x="203" y="1484" type="line" smooth="yes"/>
      <point x="203" y="1520"/>
      <point x="192" y="1535"/>
      <point x="180" y="1529" type="curve" smooth="yes"/>
      <point x="133" y="1506"/>
      <point x="88" y="1370"/>
      <point x="88" y="1133" type="curve" smooth="yes"/>
      <point x="88" y="988" type="line" smooth="yes"/>
      <point x="88" y="945"/>
      <point x="99" y="911"/>
    </contour>
    <contour>
      <point x="323" y="911" type="curve" smooth="yes"/>
      <point x="390" y="911" type="line" smooth="yes"/>
      <point x="404" y="911"/>
      <point x="411" y="932"/>
      <point x="411" y="975" type="curve" smooth="yes"/>
      <point x="411" y="1178" type="line" smooth="yes"/>
      <point x="411" y="1216"/>
      <point x="403" y="1228"/>
      <point x="390" y="1228" type="curve" smooth="yes"/>
      <point x="361" y="1228" type="line" smooth="yes"/>
      <point x="356" y="1228"/>
      <point x="355" y="1239"/>
      <point x="355" y="1255" type="curve" smooth="yes"/>
      <point x="355" y="1279"/>
      <point x="367" y="1356"/>
      <point x="390" y="1399" type="curve" smooth="yes"/>
      <point x="405" y="1426"/>
      <point x="411" y="1420"/>
      <point x="411" y="1474" type="curve" smooth="yes"/>
      <point x="411" y="1484" type="line" smooth="yes"/>
      <point x="411" y="1520"/>
      <point x="400" y="1535"/>
      <point x="388" y="1529" type="curve" smooth="yes"/>
      <point x="341" y="1506"/>
      <point x="296" y="1370"/>
      <point x="296" y="1133" type="curve" smooth="yes"/>
      <point x="296" y="988" type="line" smooth="yes"/>
      <point x="296" y="945"/>
      <point x="307" y="911"/>
    </contour>
  </outline>
</glyph>
<glyph name="daggerdbl" format="1">
  <advance width="738"/>
  <unicode hex="2021"/>
  <outline>
    <contour>
      <point x="360.5" y="0" type="curve" smooth="yes"/>
      <point x="392.5" y="0" type="line" smooth="yes"/>
      <point x="407.5" y="0"/>
      <point x="415.5" y="24"/>
      <point x="415.5" y="67" type="curve" smooth="yes"/>
      <point x="415.5" y="435.2" type="line"/>
      <point x="646" y="435.2" type="line" smooth="yes"/>
      <point x="689" y="435.2"/>
      <point x="702" y="443.2"/>
      <point x="702" y="457.2" type="curve" smooth="yes"/>
      <point x="702" y="489.2" type="line" smooth="yes"/>
      <point x="702" y="504.2"/>
      <point x="689" y="513.2"/>
      <point x="646" y="513.2" type="curve" smooth="yes"/>
      <point x="415.5" y="513.2" type="line"/>
      <point x="415.5" y="987.2" type="line"/>
      <point x="646" y="987.2" type="line" smooth="yes"/>
      <point x="689" y="987.2"/>
      <point x="702" y="995.2"/>
      <point x="702" y="1009.2" type="curve" smooth="yes"/>
      <point x="702" y="1041.2" type="line" smooth="yes"/>
      <point x="702" y="1056.2"/>
      <point x="689" y="1065.2"/>
      <point x="646" y="1065.2" type="curve" smooth="yes"/>
      <point x="415.5" y="1065.2" type="line"/>
      <point x="415.5" y="1371" type="line" smooth="yes"/>
      <point x="415.5" y="1414"/>
      <point x="407.5" y="1438"/>
      <point x="392.5" y="1438" type="curve" smooth="yes"/>
      <point x="360.5" y="1438" type="line" smooth="yes"/>
      <point x="346.5" y="1438"/>
      <point x="338.5" y="1414"/>
      <point x="338.5" y="1371" type="curve" smooth="yes"/>
      <point x="338.5" y="1065.2" type="line"/>
      <point x="94" y="1065.2" type="line" smooth="yes"/>
      <point x="51" y="1065.2"/>
      <point x="36" y="1056.2"/>
      <point x="36" y="1041.2" type="curve" smooth="yes"/>
      <point x="36" y="1009.2" type="line" smooth="yes"/>
      <point x="36" y="995.2"/>
      <point x="51" y="987.2"/>
      <point x="94" y="987.2" type="curve" smooth="yes"/>
      <point x="338.5" y="987.2" type="line"/>
      <point x="338.5" y="513.2" type="line"/>
      <point x="94" y="513.2" type="line" smooth="yes"/>
      <point x="51" y="513.2"/>
      <point x="36" y="504.2"/>
      <point x="36" y="489.2" type="curve" smooth="yes"/>
      <point x="36" y="457.2" type="line" smooth="yes"/>
      <point x="36" y="443.2"/>
      <point x="51" y="435.2"/>
      <point x="94" y="435.2" type="curve" smooth="yes"/>
      <point x="338.5" y="435.2" type="line"/>
      <point x="338.5" y="67" type="line" smooth="yes"/>
      <point x="338.5" y="24"/>
      <point x="346.5" y="0"/>
    </contour>
  </outline>
</glyph>
<glyph name="guilsinglright" format="1">
  <advance width="427"/>
  <unicode hex="203A"/>
  <outline>
    <contour>
      <point x="57.4668" y="241.651" type="curve" smooth="yes"/>
      <point x="61.7344" y="241.651"/>
      <point x="67.2266" y="247.816"/>
      <point x="72.6055" y="253" type="curve" smooth="yes"/>
      <point x="349.605" y="520" type="line" smooth="yes"/>
      <point x="372.013" y="541.599"/>
      <point x="375" y="556.258"/>
      <point x="375" y="578.318" type="curve" smooth="yes"/>
      <point x="374.78" y="632.225" type="line" smooth="yes"/>
      <point x="374.78" y="655.291"/>
      <point x="372.296" y="667.018"/>
      <point x="348.605" y="692" type="curve" smooth="yes"/>
      <point x="73.6055" y="982" type="line" smooth="yes"/>
      <point x="68.2881" y="987.607"/>
      <point x="63.876" y="990.521"/>
      <point x="60.3477" y="990.521" type="curve" smooth="yes"/>
      <point x="53.124" y="990.521"/>
      <point x="49.6055" y="978.309"/>
      <point x="49.6055" y="952" type="curve" smooth="yes"/>
      <point x="49.6055" y="937" type="line" smooth="yes"/>
      <point x="49.6055" y="894"/>
      <point x="53.249" y="893.647"/>
      <point x="72.6055" y="873" type="curve" smooth="yes"/>
      <point x="312.605" y="617" type="line" smooth="yes"/>
      <point x="315.071" y="614.37"/>
      <point x="315.605" y="609"/>
      <point x="315.605" y="604" type="curve" smooth="yes"/>
      <point x="315.605" y="600"/>
      <point x="314.649" y="594.954"/>
      <point x="311.605" y="592" type="curve" smooth="yes"/>
      <point x="73.6055" y="361" type="line" smooth="yes"/>
      <point x="53.5" y="341.486"/>
      <point x="49.6055" y="344"/>
      <point x="49.6055" y="301" type="curve" smooth="yes"/>
      <point x="49.6055" y="273" type="line" smooth="yes"/>
      <point x="49.6055" y="249"/>
      <point x="52.8066" y="241.651"/>
    </contour>
  </outline>
</glyph>
<glyph name="Euro" format="1">
  <advance width="660"/>
  <unicode hex="20AC"/>
  <outline>
    <contour>
      <point x="432" y="-13" type="curve" smooth="yes"/>
      <point x="438.208423692" y="-13.0"/>
      <point x="518.780792365" y="-11.9052194716"/>
      <point x="553.861976112" y="1.0312065818" type="curve" smooth="yes"/>
      <point x="563.731142173" y="4.67052895673"/>
      <point x="570.0" y="9.24703452315"/>
      <point x="570" y="15" type="curve" smooth="yes"/>
      <point x="570" y="63" type="line" smooth="yes"/>
      <point x="570" y="68"/>
      <point x="567" y="72"/>
      <point x="563" y="71" type="curve" smooth="yes"/>
      <point x="530" y="60"/>
      <point x="469" y="51"/>
      <point x="433" y="51" type="curve" smooth="yes"/>
      <point x="301.311" y="51"/>
      <point x="192.895" y="106.375"/>
      <point x="171.74" y="550" type="curve"/>
      <point x="351" y="550" type="line" smooth="yes"/>
      <point x="366" y="550"/>
      <point x="371" y="550"/>
      <point x="371" y="593" type="curve" smooth="yes"/>
      <point x="371" y="597" type="line" smooth="yes"/>
      <point x="371" y="640"/>
      <point x="366" y="640"/>
      <point x="351" y="640" type="curve" smooth="yes"/>
      <point x="168.768" y="640" type="line"/>
      <point x="168.259" y="665.864"/>
      <point x="168" y="692.849"/>
      <point x="168" y="721" type="curve" smooth="yes"/>
      <point x="168" y="753.908"/>
      <point x="168.433" y="785.216"/>
      <point x="169.275" y="815" type="curve"/>
      <point x="351" y="815" type="line" smooth="yes"/>
      <point x="366" y="815"/>
      <point x="371" y="815"/>
      <point x="371" y="858" type="curve" smooth="yes"/>
      <point x="371" y="862" type="line" smooth="yes"/>
      <point x="371" y="905"/>
      <point x="366" y="905"/>
      <point x="351" y="905" type="curve" smooth="yes"/>
      <point x="173.325" y="905" type="line"/>
      <point x="200.382" y="1332.26"/>
      <point x="326.298" y="1388"/>
      <point x="453" y="1388" type="curve" smooth="yes"/>
      <point x="524" y="1388"/>
      <point x="583" y="1363"/>
      <point x="585" y="1363" type="curve" smooth="yes"/>
      <point x="589" y="1363"/>
      <point x="592" y="1364"/>
      <point x="592" y="1372" type="curve" smooth="yes"/>
      <point x="592" y="1413" type="line" smooth="yes"/>
      <point x="592" y="1441.84"/>
      <point x="499.736" y="1451"/>
      <point x="444" y="1451" type="curve" smooth="yes"/>
      <point x="290.38" y="1451"/>
      <point x="127.076" y="1396.12"/>
      <point x="95.4668" y="905" type="curve"/>
      <point x="57" y="905" type="line" smooth="yes"/>
      <point x="42" y="905"/>
      <point x="38" y="905"/>
      <point x="38" y="862" type="curve" smooth="yes"/>
      <point x="38" y="858" type="line" smooth="yes"/>
      <point x="38" y="815"/>
      <point x="42" y="815"/>
      <point x="57" y="815" type="curve" smooth="yes"/>
      <point x="91.3214" y="815" type="line"/>
      <point x="90.4484" y="785.079"/>
      <point x="90" y="753.767"/>
      <point x="90" y="721" type="curve" smooth="yes"/>
      <point x="90" y="692.944"/>
      <point x="90.3013" y="665.957"/>
      <point x="90.8896" y="640" type="curve"/>
      <point x="57" y="640" type="line" smooth="yes"/>
      <point x="42" y="640"/>
      <point x="38" y="640"/>
      <point x="38" y="597" type="curve" smooth="yes"/>
      <point x="38" y="593" type="line" smooth="yes"/>
      <point x="38" y="550"/>
      <point x="42" y="550"/>
      <point x="57" y="550" type="curve" smooth="yes"/>
      <point x="94.2733" y="550" type="line"/>
      <point x="122.97" y="16.058"/>
      <point x="290.769" y="-13"/>
    </contour>
  </outline>
</glyph>
